<svg width="151" height="48" viewBox="0 0 151 48" fill="none" xmlns="http://www.w3.org/2000/svg">
<rect width="151" height="48" rx="8" fill="#2E81DA"/>
<g clip-path="url(#clip0_2503_1995)">
<path d="M42.0799 27.4175C42.7596 28.1261 43.5765 28.6894 44.481 29.073C45.3855 29.4565 46.3587 29.6525 47.3414 29.6489C49.2738 29.6489 50.2206 28.7346 50.2206 27.7895C50.2206 26.5498 48.7771 26.1314 46.868 25.682C44.1597 25.0622 40.6597 24.3184 40.6597 20.6227C40.6597 17.8723 43.0422 15.641 46.9457 15.641C49.3178 15.554 51.6316 16.3869 53.4023 17.9653L51.47 20.522C50.1681 19.3545 48.4784 18.7113 46.7283 18.7168C45.1375 18.7168 44.2916 19.4063 44.2916 20.3981C44.2916 21.5138 45.6885 21.8624 47.5975 22.3118C50.3292 22.9316 53.8059 23.7451 53.8059 27.4175C53.8059 30.4392 51.6407 32.7248 47.1707 32.7248C45.8818 32.7837 44.5944 32.5813 43.386 32.1299C42.1776 31.6785 41.0733 30.9874 40.1398 30.0983L42.0799 27.4175Z" fill="white"/>
<path d="M55.7848 16.8027C55.7863 16.431 55.898 16.068 56.1058 15.7596C56.3137 15.4512 56.6082 15.2111 56.9525 15.0696C57.2968 14.928 57.6751 14.8914 58.0402 14.9643C58.4053 15.0372 58.7405 15.2163 59.0041 15.4792C59.2671 15.742 59.4467 16.0768 59.5198 16.4412C59.5928 16.8057 59.5561 17.1836 59.4141 17.5273C59.2726 17.871 59.0322 18.1652 58.7233 18.3726C58.414 18.5801 58.0507 18.6916 57.6783 18.6931C57.1768 18.6911 56.6963 18.4913 56.3416 18.1372C55.987 17.7831 55.7868 17.3034 55.7848 16.8027ZM56.1262 20.4519H59.2304V32.4221H56.1262V20.4519Z" fill="white"/>
<path d="M63.0096 29.4472V23.2026H61.0229V20.4521H63.0096V17.1748H66.215V20.4521H68.6207V23.2026H66.215V28.626C66.215 29.4008 66.6105 29.9353 67.3013 29.9353C67.6954 29.9501 68.0828 29.8267 68.3957 29.5867L69.0706 31.973C68.3136 32.5404 67.3765 32.8155 66.4322 32.7478C64.2047 32.7245 63.0096 31.5701 63.0096 29.4472Z" fill="white"/>
<path d="M76.218 20.1503C79.7958 20.1503 82.2324 22.831 82.2324 26.7514V27.4409H73.3156C73.4281 28.2565 73.8476 28.9986 74.4899 29.5155C75.1317 30.0325 75.9468 30.2853 76.7691 30.2224C77.9457 30.2195 79.0828 29.7962 79.974 29.0292L81.3633 31.0591C79.9727 32.1948 78.2155 32.7869 76.4198 32.7249C72.7722 32.7249 70.0095 30.2688 70.0095 26.426C69.9855 25.6018 70.1288 24.7813 70.4313 24.0141C70.7339 23.2468 71.1888 22.5488 71.7689 21.9622C72.3495 21.3756 73.043 20.9125 73.8077 20.6011C74.5724 20.2897 75.3925 20.1363 76.218 20.1503ZM73.2689 25.3103H79.1748C79.159 24.9411 79.0696 24.5787 78.9118 24.2446C78.7535 23.9104 78.5303 23.6111 78.255 23.3643C77.9792 23.1174 77.6572 22.928 77.3075 22.8072C76.9578 22.6863 76.5872 22.6365 76.218 22.6606C75.4796 22.6385 74.7607 22.9016 74.2114 23.3951C73.6621 23.8887 73.3247 24.5746 73.2689 25.3103Z" fill="white"/>
<path d="M99.3905 24.8601C99.3905 23.7444 98.8939 22.9541 97.6057 22.9541C97.1127 22.9771 96.6314 23.1143 96.2001 23.355C95.7692 23.5957 95.4 23.9333 95.1224 24.341V32.4219H91.9406V24.8601C91.9406 23.7444 91.4439 22.9541 90.1558 22.9541C89.661 22.982 89.1793 23.1239 88.7484 23.3685C88.3175 23.6131 87.9492 23.9539 87.6725 24.3643V32.4219H84.5138V20.4516H87.6725V22.0012C88.151 21.4353 88.7443 20.977 89.4128 20.6566C90.0819 20.3361 90.8112 20.1606 91.5528 20.1417C92.2821 20.0624 93.0169 20.2373 93.6324 20.637C94.2475 21.0365 94.7056 21.6362 94.9283 22.3344C95.3909 21.6686 96.0064 21.1229 96.7235 20.7428C97.4402 20.3628 98.2375 20.1593 99.0494 20.1495C101.261 20.1495 102.572 21.3194 102.572 23.7754V32.4219H99.3987L99.3905 24.8601Z" fill="white"/>
<path d="M112.878 31.1823C112.392 31.6963 111.801 32.1006 111.145 32.3678C110.489 32.6351 109.784 32.7592 109.076 32.7318C108.538 32.7547 108.002 32.6693 107.498 32.4806C106.995 32.292 106.534 32.0039 106.144 31.6336C105.755 31.2634 105.444 30.8186 105.23 30.3257C105.016 29.8328 104.904 29.302 104.901 28.765C104.901 25.9603 107.167 24.9453 109.076 24.9453C109.778 24.8999 110.482 25.0073 111.138 25.2601C111.795 25.5129 112.389 25.9052 112.878 26.4096V24.7362C112.878 23.5275 111.831 22.7295 110.24 22.7295C108.933 22.7309 107.678 23.2393 106.74 24.1473L105.552 22.0399C107.008 20.7907 108.872 20.1181 110.791 20.1495C113.522 20.1495 116.029 21.2419 116.029 24.6897V32.4374H112.878V31.1823ZM112.878 28.0832C112.56 27.7326 112.166 27.4575 111.727 27.2779C111.288 27.0983 110.814 27.0187 110.341 27.045C109.099 27.045 108.082 27.7113 108.082 28.8502C108.082 29.9891 109.099 30.6167 110.341 30.6167C110.815 30.6437 111.29 30.5637 111.729 30.3826C112.168 30.2016 112.561 29.9241 112.878 29.5708V28.0832Z" fill="white"/>
<path d="M119.762 29.4472V23.2026H117.775V20.4521H119.762V17.1748H122.944V20.4521H125.372V23.2026H122.944V28.626C122.944 29.4008 123.34 29.9353 124.038 29.9353C124.429 29.9489 124.814 29.8256 125.124 29.5867L125.799 31.973C125.046 32.5424 124.111 32.8179 123.169 32.7478C120.972 32.7245 119.762 31.5701 119.762 29.4472Z" fill="white"/>
<path d="M132.993 20.1503C136.563 20.1503 139 22.831 139 26.7514V27.4409H130.083C130.197 28.2558 130.618 28.9967 131.259 29.5133C131.901 30.0299 132.715 30.2834 133.537 30.2224C134.714 30.2208 135.851 29.7974 136.742 29.0292L138.131 31.0591C136.74 32.1948 134.983 32.7869 133.187 32.7249C129.54 32.7249 126.785 30.2688 126.785 26.426C126.761 25.6018 126.904 24.7813 127.207 24.0141C127.509 23.2468 127.964 22.5488 128.545 21.9622C129.125 21.3756 129.818 20.9125 130.583 20.6011C131.348 20.2897 132.168 20.1363 132.993 20.1503ZM130.037 25.3103H135.942C135.928 24.9414 135.839 24.5793 135.682 24.2451C135.525 23.911 135.303 23.6116 135.028 23.3647C134.753 23.1177 134.431 22.9282 134.082 22.8073C133.732 22.6864 133.363 22.6365 132.993 22.6606C132.254 22.6384 131.534 22.9013 130.984 23.3946C130.433 23.888 130.094 24.5739 130.037 25.3103Z" fill="white"/>
<path d="M27.8239 21.9245C28.459 22.4921 28.8669 23.2699 28.9725 24.1143C29.078 24.9588 28.874 25.8128 28.3982 26.5189L23.5324 33.9955C23.0505 34.7442 22.3049 35.2853 21.4428 35.5119C20.5807 35.7385 19.6649 35.6343 18.8761 35.2196C18.3052 34.9148 17.8319 34.4557 17.5103 33.8947L15.1822 29.7264C15.1364 29.6405 15.1125 29.5448 15.1123 29.4475C15.1142 29.3495 15.1409 29.2536 15.1899 29.1686C15.2353 29.0832 15.3022 29.0112 15.3839 28.9594C15.4675 28.9125 15.5601 28.8835 15.6555 28.8742C16.586 28.848 17.4964 28.5981 18.3096 28.1459C19.1188 27.6949 19.806 27.054 20.3118 26.2787L22.6399 22.7147C22.9039 22.2975 23.2562 21.9432 23.6721 21.6765C24.2974 21.2777 25.0343 21.0896 25.7746 21.1398C26.5149 21.19 27.2196 21.4759 27.7851 21.9554L27.8239 21.9245Z" fill="white"/>
<path d="M22.3528 12.4873C22.8506 12.7972 23.2575 13.2328 23.5324 13.7502V13.8044L25.8605 17.9417C25.9086 18.027 25.9353 18.1228 25.9381 18.2207C25.9363 18.3187 25.9095 18.4146 25.8605 18.4996C25.8128 18.5832 25.7464 18.6548 25.6665 18.7088C25.5829 18.7557 25.4904 18.7847 25.3949 18.794C24.4668 18.8203 23.5588 19.0701 22.7481 19.522C21.9375 19.9739 21.2481 20.6146 20.7386 21.3895L18.4105 24.8992C17.9543 25.6208 17.251 26.1523 16.4315 26.3946C15.612 26.6369 14.7322 26.5736 13.956 26.2163C13.5138 26.0035 13.1219 25.6993 12.8062 25.324C12.4905 24.9488 12.2581 24.5108 12.1245 24.0392C11.9953 23.5648 11.9663 23.0688 12.0392 22.5826C12.117 22.0985 12.2968 21.6363 12.5669 21.2268L17.5103 13.6417C18.0046 12.8693 18.7785 12.3172 19.6706 12.1007C20.5627 11.8841 21.5042 12.0199 22.2985 12.4796L22.3528 12.4873Z" fill="white"/>
</g>
<defs>
<clipPath id="clip0_2503_1995">
<rect width="127" height="24" fill="white" transform="translate(12 12)"/>
</clipPath>
</defs>
</svg>
