<svg width="32" height="32" viewBox="0 0 32 32" fill="none" xmlns="http://www.w3.org/2000/svg">
<rect x="0.5" y="0.5" width="31" height="31" rx="15.5" stroke="#392F5A"/>
<path d="M3.67139 16.5154C3.3859 16.4635 3.13384 16.139 3.21556 15.8375C3.42706 15.0572 4.36838 14.2695 4.91033 13.8155C7.80992 11.3864 11.4262 9.93044 15.0731 9.04675C16.2315 8.76608 19.8169 7.74335 20.9931 9.04675C22.0351 10.2013 19.9431 12.9636 19.4912 13.5817C17.2393 16.6618 14.4281 19.2879 11.6076 21.8335C10.9529 22.4244 10.3059 23.0311 9.58556 23.54C9.5624 23.5563 9.57487 23.4835 9.56219 23.4582" stroke="#392F5A" stroke-width="2" stroke-linecap="round"/>
<path d="M11.4557 15.0427C11.6387 15.8205 12.0221 16.614 12.3089 17.357C12.9447 19.0035 13.6179 20.7055 14.705 22.114C15.1133 22.643 15.5907 23.0678 16.1777 23.388C16.9408 23.8043 17.4323 22.4676 17.7439 21.9913C18.4165 20.9631 19.0849 19.3748 20.514 19.3615C21.436 19.3528 22.1916 19.7321 22.9334 20.2556C23.697 20.7945 24.4036 21.7077 25.3061 22.0322C26.6116 22.5016 27.17 19.2109 27.3047 18.5375C27.5945 17.0888 27.6317 15.6683 27.5502 14.2012" stroke="#392F5A" stroke-width="2" stroke-linecap="round"/>
</svg>
