<svg width="80" height="80" viewBox="0 0 80 80" fill="none" xmlns="http://www.w3.org/2000/svg">
<rect x="1" y="1" width="78" height="78" rx="39" stroke="#392F5A" stroke-width="2"/>
<path d="M9.17861 41.2888C8.46488 41.1591 7.83472 40.3479 8.03902 39.5941C8.56776 37.6432 10.9211 35.674 12.2759 34.539C19.5249 28.4664 28.5656 24.8263 37.6829 22.6171C40.5788 21.9154 49.5423 19.3586 52.4829 22.6171C55.0878 25.5036 49.8579 32.4093 48.7282 33.9546C43.0983 41.6548 36.0703 48.2201 29.0191 54.584C27.3823 56.0613 25.7648 57.5779 23.964 58.8502C23.9061 58.8911 23.9373 58.7091 23.9056 58.6456" stroke="#392F5A" stroke-width="3" stroke-linecap="round"/>
<path d="M28.6393 37.6072C29.0968 39.5517 30.0552 41.5353 30.7723 43.3927C32.3617 47.5092 34.0447 51.7641 36.7625 55.2854C37.7832 56.6078 38.9768 57.67 40.4442 58.4704C42.3521 59.5111 43.5807 56.1694 44.3597 54.9786C46.0412 52.408 47.7122 48.4374 51.2849 48.404C53.59 48.3825 55.479 49.3306 57.3335 50.6394C59.2425 51.9866 61.009 54.2696 63.2652 55.0808C66.529 56.2543 67.9251 48.0276 68.2618 46.344C68.9862 42.7224 69.0792 39.1712 68.8755 35.5033" stroke="#392F5A" stroke-width="3" stroke-linecap="round"/>
</svg>
