<svg width="80" height="80" viewBox="0 0 80 80" fill="none" xmlns="http://www.w3.org/2000/svg">
<g clip-path="url(#clip0_442_4662)">
<path d="M78 40C78 19.0132 60.9868 2 40 2C19.0132 2 2 19.0132 2 40C2 60.9868 19.0132 78 40 78C60.9868 78 78 60.9868 78 40Z" stroke="#392F5A" stroke-width="3"/>
<path d="M9.17861 41.2888C8.46488 41.1591 7.83472 40.3479 8.03902 39.5941C8.56776 37.6432 10.9211 35.674 12.2759 34.539C19.5249 28.4664 28.5656 24.8263 37.6829 22.6171C40.5788 21.9154 49.5423 19.3586 52.4829 22.6171C55.0878 25.5036 49.8579 32.4093 48.7282 33.9546C43.0983 41.6548 36.0703 48.2201 29.0191 54.584C27.3823 56.0613 25.7648 57.5779 23.964 58.8502C23.9061 58.8911 23.9373 58.7091 23.9056 58.6456" stroke="#392F5A" stroke-width="5" stroke-linecap="round"/>
<path d="M28.6394 37.6073C29.0969 39.5518 30.0553 41.5354 30.7724 43.3928C32.3618 47.5093 34.0448 51.7642 36.7626 55.2855C37.7833 56.6079 38.9769 57.6701 40.4443 58.4705C42.3522 59.5112 43.5808 56.1695 44.3598 54.9787C46.0413 52.4081 47.7123 48.4375 51.285 48.4041C53.5901 48.3826 55.4791 49.3307 57.3336 50.6395C59.2426 51.9867 61.0091 54.2697 63.2653 55.0809C66.5291 56.2544 67.9252 48.0277 68.2619 46.3441C68.9863 42.7225 69.0793 39.1713 68.8756 35.5034" stroke="#392F5A" stroke-width="5" stroke-linecap="round"/>
</g>
<defs>
<clipPath id="clip0_442_4662">
<rect width="80" height="80" fill="white"/>
</clipPath>
</defs>
</svg>
