<svg width="290" height="80" viewBox="0 0 290 80" fill="none" xmlns="http://www.w3.org/2000/svg">
<g clip-path="url(#clip0_442_4658)">
<path d="M78 40C78 19.0132 60.9868 2 40 2C19.0132 2 2 19.0132 2 40C2 60.9868 19.0132 78 40 78C60.9868 78 78 60.9868 78 40Z" stroke="#392F5A" stroke-width="3"/>
<path d="M9.17861 41.2888C8.46488 41.1591 7.83472 40.3479 8.03902 39.5941C8.56776 37.6432 10.9211 35.674 12.2759 34.539C19.5249 28.4664 28.5656 24.8263 37.6829 22.6171C40.5788 21.9154 49.5423 19.3586 52.4829 22.6171C55.0878 25.5036 49.8579 32.4093 48.7282 33.9546C43.0983 41.6548 36.0703 48.2201 29.0191 54.584C27.3823 56.0613 25.7648 57.5779 23.964 58.8502C23.9061 58.8911 23.9373 58.7091 23.9056 58.6456" stroke="#392F5A" stroke-width="5" stroke-linecap="round"/>
<path d="M28.6394 37.6073C29.0969 39.5518 30.0553 41.5354 30.7724 43.3928C32.3618 47.5093 34.0448 51.7642 36.7626 55.2855C37.7833 56.6079 38.9769 57.6701 40.4443 58.4705C42.3522 59.5112 43.5808 56.1695 44.3598 54.9787C46.0413 52.4081 47.7123 48.4375 51.285 48.4041C53.5901 48.3826 55.4791 49.3307 57.3336 50.6395C59.2426 51.9867 61.0091 54.2697 63.2653 55.0809C66.5291 56.2544 67.9252 48.0277 68.2619 46.3441C68.9863 42.7225 69.0793 39.1713 68.8756 35.5034" stroke="#392F5A" stroke-width="5" stroke-linecap="round"/>
</g>
<path d="M102.28 65.2V63.08C103.053 63.08 103.6 62.9067 103.92 62.56C104.267 62.24 104.48 61.7733 104.56 61.16C104.64 60.5467 104.68 59.8533 104.68 59.08L104.72 41.36C104.72 40.88 104.72 40.3733 104.72 39.84C104.747 39.3067 104.8 38.76 104.88 38.2C104.427 38.2267 103.92 38.2533 103.36 38.28C102.827 38.3067 102.387 38.3333 102.04 38.36V35.76C103.267 35.76 104.253 35.7067 105 35.6C105.773 35.4667 106.36 35.3067 106.76 35.12C107.187 34.9333 107.493 34.76 107.68 34.6H109.4C109.453 34.8667 109.493 35.1867 109.52 35.56C109.547 35.9333 109.573 36.28 109.6 36.6C110.48 35.8267 111.413 35.2667 112.4 34.92C113.387 34.5467 114.333 34.36 115.24 34.36C116.84 34.36 118.267 34.7733 119.52 35.6C120.773 36.4 121.76 37.56 122.48 39.08C123.2 40.5733 123.56 42.3467 123.56 44.4C123.56 46.5867 123.12 48.5333 122.24 50.24C121.387 51.92 120.213 53.24 118.72 54.2C117.227 55.16 115.507 55.64 113.56 55.64C112.76 55.64 112.04 55.5467 111.4 55.36C110.76 55.2 110.16 54.9867 109.6 54.72V59.48C109.6 59.9067 109.587 60.4133 109.56 61C109.56 61.6133 109.52 62.2 109.44 62.76C109.867 62.7067 110.32 62.6667 110.8 62.64C111.28 62.64 111.68 62.64 112 62.64V65.2H102.28ZM113.12 53.12C114.347 53.0933 115.333 52.72 116.08 52C116.853 51.2533 117.413 50.2667 117.76 49.04C118.107 47.8133 118.28 46.48 118.28 45.04C118.28 43.7333 118.107 42.4933 117.76 41.32C117.44 40.1467 116.92 39.2 116.2 38.48C115.48 37.76 114.52 37.4 113.32 37.4C112.573 37.4267 111.867 37.6133 111.2 37.96C110.56 38.3067 110.027 38.76 109.6 39.32C109.6 39.9067 109.6 40.5067 109.6 41.12C109.6 41.7333 109.6 42.3867 109.6 43.08C109.6 43.7733 109.6 44.56 109.6 45.44C109.6 46.2933 109.6 47.2667 109.6 48.36C109.6 49.4533 109.6 50.7067 109.6 52.12C110.027 52.4133 110.547 52.6533 111.16 52.84C111.773 53.0267 112.427 53.12 113.12 53.12ZM136.224 55.64C134.304 55.64 132.598 55.2133 131.104 54.36C129.611 53.48 128.451 52.2533 127.624 50.68C126.798 49.08 126.384 47.2 126.384 45.04C126.384 43.1733 126.798 41.4267 127.624 39.8C128.451 38.1733 129.611 36.8667 131.104 35.88C132.624 34.8667 134.384 34.36 136.384 34.36C137.504 34.36 138.584 34.52 139.624 34.84C140.664 35.16 141.598 35.6933 142.424 36.44C143.251 37.1867 143.904 38.1733 144.384 39.4C144.891 40.6267 145.131 42.12 145.104 43.88L131.664 44.12C131.664 45.7733 131.851 47.24 132.224 48.52C132.624 49.7733 133.264 50.7733 134.144 51.52C135.024 52.24 136.184 52.6 137.624 52.6C138.264 52.6 138.944 52.4933 139.664 52.28C140.411 52.04 141.144 51.6933 141.864 51.24C142.584 50.76 143.224 50.1733 143.784 49.48L145.304 50.88C144.424 52.16 143.451 53.1467 142.384 53.84C141.318 54.5333 140.251 55 139.184 55.24C138.118 55.5067 137.131 55.64 136.224 55.64ZM131.864 41.72H140.184C140.158 40.6533 139.998 39.76 139.704 39.04C139.438 38.2933 139.038 37.7333 138.504 37.36C137.971 36.96 137.318 36.76 136.544 36.76C135.238 36.76 134.184 37.2 133.384 38.08C132.611 38.9333 132.104 40.1467 131.864 41.72ZM157.187 65.84C154.84 65.84 152.974 65.5867 151.587 65.08C150.227 64.5733 149.24 63.9067 148.627 63.08C148.04 62.28 147.747 61.44 147.747 60.56C147.747 59.8933 147.894 59.2667 148.187 58.68C148.48 58.12 148.907 57.5867 149.467 57.08C150.027 56.5733 150.707 56.1733 151.507 55.88C150.494 55.5867 149.76 55.1467 149.307 54.56C148.854 53.9467 148.627 53.2533 148.627 52.48C148.627 51.7067 148.934 50.8933 149.547 50.04C150.187 49.1867 151.187 48.5867 152.547 48.24C151.4 47.7333 150.454 46.9867 149.707 46C148.987 45.0133 148.614 43.84 148.587 42.48C148.56 40.88 148.96 39.4667 149.787 38.24C150.64 37.0133 151.747 36.0667 153.107 35.4C154.467 34.7067 155.88 34.36 157.347 34.36C158.094 34.36 158.92 34.4667 159.827 34.68C160.734 34.8933 161.534 35.2267 162.227 35.68C162.494 34.88 162.867 34.1467 163.347 33.48C163.827 32.7867 164.387 32.2267 165.027 31.8C165.694 31.3733 166.427 31.16 167.227 31.16C168.054 31.16 168.68 31.3733 169.107 31.8C169.534 32.2267 169.747 32.8 169.747 33.52C169.747 33.8133 169.68 34.1333 169.547 34.48C169.414 34.8267 169.187 35.12 168.867 35.36C168.547 35.6 168.107 35.72 167.547 35.72C167.12 35.72 166.72 35.5733 166.347 35.28C166 34.9867 165.787 34.6267 165.707 34.2C165.254 34.3067 164.84 34.64 164.467 35.2C164.12 35.76 163.907 36.2933 163.827 36.8C164.547 37.44 165.107 38.2 165.507 39.08C165.907 39.9333 166.107 40.8533 166.107 41.84C166.107 43.36 165.68 44.72 164.827 45.92C164 47.0933 162.907 48.0133 161.547 48.68C160.214 49.3467 158.774 49.68 157.227 49.68C156.827 49.68 156.427 49.6667 156.027 49.64C155.627 49.5867 155.2 49.56 154.747 49.56C154.027 49.56 153.427 49.7067 152.947 50C152.494 50.2933 152.294 50.68 152.347 51.16C152.427 51.72 152.907 52.0933 153.787 52.28C154.667 52.44 156.027 52.5733 157.867 52.68C159.92 52.7867 161.707 53.04 163.227 53.44C164.747 53.84 165.92 54.4667 166.747 55.32C167.574 56.2 167.987 57.4 167.987 58.92C167.987 60.04 167.667 61.0267 167.027 61.88C166.387 62.7333 165.534 63.4533 164.467 64.04C163.427 64.6267 162.267 65.0667 160.987 65.36C159.734 65.68 158.467 65.84 157.187 65.84ZM157.947 63.48C159.974 63.48 161.52 63.1067 162.587 62.36C163.654 61.6133 164.187 60.8 164.187 59.92C164.187 59.2267 163.934 58.6667 163.427 58.24C162.92 57.84 162.2 57.5333 161.267 57.32C160.334 57.1067 159.174 56.9733 157.787 56.92C157.174 56.8933 156.494 56.8533 155.747 56.8C155 56.7733 154.32 56.7067 153.707 56.6C153.2 56.9733 152.8 57.44 152.507 58C152.24 58.56 152.107 59.12 152.107 59.68C152.054 60.8267 152.56 61.7467 153.627 62.44C154.694 63.1333 156.134 63.48 157.947 63.48ZM157.387 47.44C158.187 47.44 158.854 47.2133 159.387 46.76C159.947 46.28 160.36 45.68 160.627 44.96C160.92 44.2133 161.067 43.4267 161.067 42.6C161.067 41.5867 160.934 40.6267 160.667 39.72C160.4 38.7867 159.987 38.04 159.427 37.48C158.867 36.8933 158.16 36.6 157.307 36.6C156.107 36.6 155.174 37.1067 154.507 38.12C153.867 39.1067 153.547 40.28 153.547 41.64C153.547 42.68 153.694 43.6533 153.987 44.56C154.307 45.44 154.747 46.1467 155.307 46.68C155.894 47.1867 156.587 47.44 157.387 47.44ZM179.218 65.84C176.871 65.84 175.005 65.5867 173.618 65.08C172.258 64.5733 171.271 63.9067 170.658 63.08C170.071 62.28 169.778 61.44 169.778 60.56C169.778 59.8933 169.925 59.2667 170.218 58.68C170.511 58.12 170.938 57.5867 171.498 57.08C172.058 56.5733 172.738 56.1733 173.538 55.88C172.525 55.5867 171.791 55.1467 171.338 54.56C170.885 53.9467 170.658 53.2533 170.658 52.48C170.658 51.7067 170.965 50.8933 171.578 50.04C172.218 49.1867 173.218 48.5867 174.578 48.24C173.431 47.7333 172.485 46.9867 171.738 46C171.018 45.0133 170.645 43.84 170.618 42.48C170.591 40.88 170.991 39.4667 171.818 38.24C172.671 37.0133 173.778 36.0667 175.138 35.4C176.498 34.7067 177.911 34.36 179.378 34.36C180.125 34.36 180.951 34.4667 181.858 34.68C182.765 34.8933 183.565 35.2267 184.258 35.68C184.525 34.88 184.898 34.1467 185.378 33.48C185.858 32.7867 186.418 32.2267 187.058 31.8C187.725 31.3733 188.458 31.16 189.258 31.16C190.085 31.16 190.711 31.3733 191.138 31.8C191.565 32.2267 191.778 32.8 191.778 33.52C191.778 33.8133 191.711 34.1333 191.578 34.48C191.445 34.8267 191.218 35.12 190.898 35.36C190.578 35.6 190.138 35.72 189.578 35.72C189.151 35.72 188.751 35.5733 188.378 35.28C188.031 34.9867 187.818 34.6267 187.738 34.2C187.285 34.3067 186.871 34.64 186.498 35.2C186.151 35.76 185.938 36.2933 185.858 36.8C186.578 37.44 187.138 38.2 187.538 39.08C187.938 39.9333 188.138 40.8533 188.138 41.84C188.138 43.36 187.711 44.72 186.858 45.92C186.031 47.0933 184.938 48.0133 183.578 48.68C182.245 49.3467 180.805 49.68 179.258 49.68C178.858 49.68 178.458 49.6667 178.058 49.64C177.658 49.5867 177.231 49.56 176.778 49.56C176.058 49.56 175.458 49.7067 174.978 50C174.525 50.2933 174.325 50.68 174.378 51.16C174.458 51.72 174.938 52.0933 175.818 52.28C176.698 52.44 178.058 52.5733 179.898 52.68C181.951 52.7867 183.738 53.04 185.258 53.44C186.778 53.84 187.951 54.4667 188.778 55.32C189.605 56.2 190.018 57.4 190.018 58.92C190.018 60.04 189.698 61.0267 189.058 61.88C188.418 62.7333 187.565 63.4533 186.498 64.04C185.458 64.6267 184.298 65.0667 183.018 65.36C181.765 65.68 180.498 65.84 179.218 65.84ZM179.978 63.48C182.005 63.48 183.551 63.1067 184.618 62.36C185.685 61.6133 186.218 60.8 186.218 59.92C186.218 59.2267 185.965 58.6667 185.458 58.24C184.951 57.84 184.231 57.5333 183.298 57.32C182.365 57.1067 181.205 56.9733 179.818 56.92C179.205 56.8933 178.525 56.8533 177.778 56.8C177.031 56.7733 176.351 56.7067 175.738 56.6C175.231 56.9733 174.831 57.44 174.538 58C174.271 58.56 174.138 59.12 174.138 59.68C174.085 60.8267 174.591 61.7467 175.658 62.44C176.725 63.1333 178.165 63.48 179.978 63.48ZM179.418 47.44C180.218 47.44 180.885 47.2133 181.418 46.76C181.978 46.28 182.391 45.68 182.658 44.96C182.951 44.2133 183.098 43.4267 183.098 42.6C183.098 41.5867 182.965 40.6267 182.698 39.72C182.431 38.7867 182.018 38.04 181.458 37.48C180.898 36.8933 180.191 36.6 179.338 36.6C178.138 36.6 177.205 37.1067 176.538 38.12C175.898 39.1067 175.578 40.28 175.578 41.64C175.578 42.68 175.725 43.6533 176.018 44.56C176.338 45.44 176.778 46.1467 177.338 46.68C177.925 47.1867 178.618 47.44 179.418 47.44ZM197.419 65.84C196.459 65.84 195.646 65.5733 194.979 65.04C194.313 64.5067 193.979 63.7733 193.979 62.84C193.979 62.2 194.193 61.6267 194.619 61.12C195.046 60.64 195.593 60.3867 196.259 60.36C196.846 60.3333 197.313 60.52 197.659 60.92C198.033 61.3467 198.219 61.8533 198.219 62.44C198.219 62.52 198.219 62.6 198.219 62.68C198.219 62.7867 198.206 62.8933 198.179 63C198.233 63 198.326 63 198.459 63C198.726 62.9467 199.006 62.7467 199.299 62.4C199.619 62.08 199.913 61.64 200.179 61.08C200.499 60.4667 200.833 59.7067 201.179 58.8C201.526 57.92 201.859 56.9333 202.179 55.84L195.899 42.92C195.179 41.4267 194.686 40.28 194.419 39.48C194.179 38.68 194.006 38.0133 193.899 37.48L192.059 37.56V35H201.459V37.12H201.379C200.366 37.2 199.806 37.5867 199.699 38.28C199.593 38.9467 199.766 39.7733 200.219 40.76L204.419 50.08C204.793 49.04 205.206 47.76 205.659 46.24C206.139 44.72 206.673 43.12 207.259 41.44C207.393 41.0133 207.553 40.5467 207.739 40.04C207.953 39.5067 208.166 39 208.379 38.52C208.593 38.04 208.806 37.68 209.019 37.44L206.579 37.56V35H213.419V37.12C212.539 37.36 211.833 37.9067 211.299 38.76C210.793 39.5867 210.313 40.6267 209.859 41.88L204.859 56.04C204.086 58.2267 203.366 60.04 202.699 61.48C202.033 62.9467 201.286 64.04 200.459 64.76C199.659 65.48 198.646 65.84 197.419 65.84ZM232.126 55.12L227.126 40.76C226.913 40.0933 226.739 39.5867 226.606 39.24C226.473 38.8667 226.379 38.56 226.326 38.32C226.273 38.0533 226.206 37.7733 226.126 37.48L224.366 37.56V35H233.606V37.12C232.646 37.1467 232.099 37.4933 231.966 38.16C231.859 38.8267 231.939 39.6533 232.206 40.64L233.726 45.76C233.913 46.3467 234.086 46.9733 234.246 47.64C234.433 48.28 234.593 48.92 234.726 49.56C234.886 48.9467 235.059 48.3067 235.246 47.64C235.433 46.9467 235.659 46.1467 235.926 45.24L239.086 35H242.526L246.006 46.24C246.193 46.8 246.379 47.4 246.566 48.04C246.753 48.68 246.926 49.28 247.086 49.84C247.219 49.3067 247.379 48.7333 247.566 48.12C247.753 47.48 247.939 46.8933 248.126 46.36L250.046 40.44C250.233 39.8 250.406 39.24 250.566 38.76C250.753 38.28 250.966 37.84 251.206 37.44L248.926 37.56V35H256.286V37.12C255.699 37.12 255.193 37.2667 254.766 37.56C254.366 37.8267 254.019 38.1733 253.726 38.6C253.433 39.0267 253.193 39.4533 253.006 39.88C252.819 40.3067 252.673 40.6933 252.566 41.04L247.606 55.12H244.246L241.126 45.8C241.019 45.4533 240.873 45.0133 240.686 44.48C240.526 43.9467 240.366 43.3867 240.206 42.8C240.046 42.2133 239.886 41.6533 239.726 41.12C239.566 41.76 239.366 42.48 239.126 43.28C238.913 44.08 238.699 44.8267 238.486 45.52C238.273 46.2133 238.099 46.7333 237.966 47.08L235.246 55.12H232.126ZM267.201 55.64C265.281 55.64 263.574 55.2133 262.081 54.36C260.588 53.48 259.428 52.2533 258.601 50.68C257.774 49.08 257.361 47.2 257.361 45.04C257.361 43.1733 257.774 41.4267 258.601 39.8C259.428 38.1733 260.588 36.8667 262.081 35.88C263.601 34.8667 265.361 34.36 267.361 34.36C268.481 34.36 269.561 34.52 270.601 34.84C271.641 35.16 272.574 35.6933 273.401 36.44C274.228 37.1867 274.881 38.1733 275.361 39.4C275.868 40.6267 276.108 42.12 276.081 43.88L262.641 44.12C262.641 45.7733 262.828 47.24 263.201 48.52C263.601 49.7733 264.241 50.7733 265.121 51.52C266.001 52.24 267.161 52.6 268.601 52.6C269.241 52.6 269.921 52.4933 270.641 52.28C271.388 52.04 272.121 51.6933 272.841 51.24C273.561 50.76 274.201 50.1733 274.761 49.48L276.281 50.88C275.401 52.16 274.428 53.1467 273.361 53.84C272.294 54.5333 271.228 55 270.161 55.24C269.094 55.5067 268.108 55.64 267.201 55.64ZM262.841 41.72H271.161C271.134 40.6533 270.974 39.76 270.681 39.04C270.414 38.2933 270.014 37.7333 269.481 37.36C268.948 36.96 268.294 36.76 267.521 36.76C266.214 36.76 265.161 37.2 264.361 38.08C263.588 38.9333 263.081 40.1467 262.841 41.72ZM279.203 52.88C279.977 52.88 280.523 52.72 280.843 52.4C281.163 52.0533 281.363 51.5733 281.443 50.96C281.523 50.3467 281.563 49.6533 281.563 48.88V41.4C281.563 40.9467 281.577 40.4533 281.603 39.92C281.63 39.36 281.67 38.7867 281.723 38.2C281.27 38.2267 280.777 38.2533 280.243 38.28C279.71 38.3067 279.27 38.3333 278.923 38.36V35.76C280.123 35.76 281.11 35.7067 281.883 35.6C282.683 35.4667 283.297 35.3067 283.723 35.12C284.177 34.9333 284.497 34.76 284.683 34.6H286.483V49.28C286.483 49.7067 286.47 50.2267 286.443 50.84C286.443 51.4267 286.403 52 286.323 52.56C286.75 52.5067 287.203 52.48 287.683 52.48C288.19 52.4533 288.603 52.44 288.923 52.44V55H279.203V52.88ZM283.803 31.16C283.03 31.16 282.377 30.88 281.843 30.32C281.31 29.7333 281.043 29.0267 281.043 28.2C281.043 27.3733 281.31 26.6667 281.843 26.08C282.403 25.4933 283.057 25.2 283.803 25.2C284.577 25.2 285.217 25.4933 285.723 26.08C286.257 26.6667 286.523 27.3733 286.523 28.2C286.523 29.0267 286.27 29.7333 285.763 30.32C285.257 30.88 284.603 31.16 283.803 31.16Z" fill="#392F5A"/>
<defs>
<clipPath id="clip0_442_4658">
<rect width="80" height="80" fill="white"/>
</clipPath>
</defs>
</svg>
