<svg width="758" height="219" viewBox="0 0 758 219" fill="none" xmlns="http://www.w3.org/2000/svg">
<g clip-path="url(#clip0_147_11847)">
<path d="M201.908 85.9933C203.069 85.9933 204.352 86.2186 205.756 86.6693C206.068 86.9119 206.224 87.1806 206.224 87.4753C206.224 87.7526 206.077 88.0039 205.782 88.2293C205.505 88.4373 205.184 88.5413 204.82 88.5413C203.884 88.2986 203.009 88.1773 202.194 88.1773C200.322 88.1773 198.901 88.7319 197.93 89.8413C196.959 90.9506 196.474 92.5973 196.474 94.7813C196.474 96.9653 197.046 98.6726 198.19 99.9033C198.779 100.545 199.481 100.865 200.296 100.865C201.111 100.865 202.411 100.432 204.196 99.5653C204.82 99.2706 205.236 99.1233 205.444 99.1233C205.895 99.1233 206.12 99.3573 206.12 99.8253C206.12 100.293 205.903 100.683 205.47 100.995C203.979 101.775 202.818 102.304 201.986 102.581C201.154 102.841 200.435 102.971 199.828 102.971C198.58 102.971 197.514 102.512 196.63 101.593C195.053 99.8946 194.264 97.5806 194.264 94.6513C194.264 91.7046 195.009 89.5293 196.5 88.1253C198.008 86.7039 199.811 85.9933 201.908 85.9933Z" fill="#444444"/>
<path d="M214.566 90.8813C215.814 90.8813 216.837 91.4793 217.634 92.6753C218.449 93.8713 218.856 95.3099 218.856 96.9913C218.856 98.6553 218.44 100.077 217.608 101.255C216.793 102.434 215.701 103.023 214.332 103.023C212.98 103.023 211.888 102.425 211.056 101.229C210.224 100.016 209.808 98.6726 209.808 97.1993C209.808 95.3099 210.189 93.8019 210.952 92.6753C211.767 91.4793 212.971 90.8813 214.566 90.8813ZM214.254 93.0133C213.526 93.0133 212.928 93.3946 212.46 94.1573C211.992 94.9199 211.758 95.7259 211.758 96.5753C211.758 97.8926 212.018 98.8979 212.538 99.5913C213.058 100.285 213.647 100.631 214.306 100.631C215.485 100.631 216.239 100.12 216.568 99.0973C216.707 98.6119 216.776 98.0053 216.776 97.2773C216.776 94.4346 215.935 93.0133 214.254 93.0133Z" fill="#444444"/>
<path d="M223.492 103.023C223.042 103.023 222.773 102.772 222.686 102.269C222.686 98.7679 222.478 95.6479 222.062 92.9093C222.062 92.5626 222.184 92.2506 222.426 91.9733C222.686 91.6959 222.972 91.5573 223.284 91.5573C223.614 91.5573 223.856 91.7393 224.012 92.1033C224.654 91.2539 225.512 90.8293 226.586 90.8293C227.956 90.8293 229.013 91.4879 229.758 92.8053C230.625 91.5573 231.769 90.9333 233.19 90.9333C234.629 90.9333 235.704 91.5053 236.414 92.6493C236.882 93.3599 237.212 94.2959 237.402 95.4573C237.593 96.6186 237.688 98.2653 237.688 100.397C237.688 101.229 237.602 101.879 237.428 102.347C237.255 102.798 236.891 103.023 236.336 103.023C235.886 103.023 235.66 102.737 235.66 102.165L235.738 98.9153C235.738 95.0153 234.724 93.0653 232.696 93.0653C232.055 93.0653 231.604 93.2906 231.344 93.7413C231.05 94.2786 230.876 94.8419 230.824 95.4313C230.755 96.4713 230.72 97.4159 230.72 98.2653V102.035C230.72 102.313 230.582 102.547 230.304 102.737C230.027 102.928 229.741 103.023 229.446 103.023C229.065 103.023 228.822 102.772 228.718 102.269L228.796 96.8873C228.796 94.9806 228.476 93.7933 227.834 93.3253C227.522 93.0999 227.046 92.9873 226.404 92.9873C225.78 92.9873 225.312 93.2213 225 93.6893C224.706 94.1573 224.558 94.9113 224.558 95.9513L224.714 100.787C224.714 102.278 224.307 103.023 223.492 103.023Z" fill="#444444"/>
<path d="M245.35 102.971C244.761 102.971 244.215 102.772 243.712 102.373C243.712 102.373 243.6 102.278 243.374 102.087V109.887C243.27 110.234 243.088 110.52 242.828 110.745C242.568 110.988 242.291 111.109 241.996 111.109C241.546 111.109 241.32 110.806 241.32 110.199V92.0773C241.424 91.6266 241.546 91.3059 241.684 91.1153C241.84 90.9246 242.074 90.8293 242.386 90.8293C242.716 90.8293 242.924 90.9073 243.01 91.0633C243.114 91.2019 243.236 91.6006 243.374 92.2593C243.444 91.9126 243.721 91.5919 244.206 91.2973C244.692 91.0026 245.342 90.8553 246.156 90.8553C247.924 90.8553 249.181 91.4966 249.926 92.7793C250.672 94.0619 251.044 95.5786 251.044 97.3293C251.044 99.0626 250.533 100.441 249.51 101.463C248.505 102.469 247.118 102.971 245.35 102.971ZM243.374 95.1713V100.007C243.478 100.059 243.6 100.146 243.738 100.267C244.241 100.718 244.787 100.943 245.376 100.943C247.768 100.943 248.964 99.7126 248.964 97.2513C248.964 95.1539 248.427 93.8279 247.352 93.2733C246.902 93.0306 246.347 92.9093 245.688 92.9093C245.047 92.9959 244.501 93.2819 244.05 93.7673C243.6 94.2353 243.374 94.7033 243.374 95.1713Z" fill="#444444"/>
<path d="M261.177 90.8553C261.94 90.8553 262.321 91.5053 262.321 92.8053C262.321 92.9439 262.321 93.0913 262.321 93.2473L262.269 95.0673C262.252 95.6393 262.243 96.2026 262.243 96.7573L262.633 102.633C262.633 103.067 262.191 103.283 261.307 103.283C261.255 103.283 261.125 103.283 260.917 103.283C260.727 103.283 260.588 103.205 260.501 103.049C260.432 102.893 260.423 102.703 260.475 102.477C260.545 102.252 260.527 102.001 260.423 101.723C259.626 102.573 258.569 102.997 257.251 102.997C254.807 102.997 253.585 101.108 253.585 97.3293C253.585 95.2319 253.975 93.6459 254.755 92.5713C255.553 91.4966 256.688 90.9593 258.161 90.9593C258.855 90.9593 259.548 91.0806 260.241 91.3233C260.467 91.0113 260.779 90.8553 261.177 90.8553ZM258.473 93.2213C257.485 93.2213 256.749 93.5073 256.263 94.0793C255.778 94.6513 255.535 95.6999 255.535 97.2253C255.535 99.7906 256.229 101.073 257.615 101.073C257.979 101.073 258.378 100.909 258.811 100.579C259.262 100.25 259.574 99.8773 259.747 99.4613C260.077 98.5253 260.241 97.5026 260.241 96.3933C260.241 95.2839 260.103 94.4779 259.825 93.9753C259.565 93.4726 259.115 93.2213 258.473 93.2213Z" fill="#444444"/>
<path d="M266.653 102.191L266.367 91.6353C266.367 91.3059 266.48 91.0373 266.705 90.8293C266.93 90.6213 267.156 90.5173 267.381 90.5173C267.936 90.5173 268.256 90.7513 268.343 91.2193C268.412 91.6873 268.447 92.1726 268.447 92.6753C269.383 91.4446 270.553 90.8293 271.957 90.8293C274.106 90.8293 275.181 93.2819 275.181 98.1873C275.181 98.6379 275.181 99.3226 275.181 100.241C275.181 101.143 275.129 101.801 275.025 102.217C274.904 102.737 274.531 102.997 273.907 102.997C273.491 102.997 273.283 102.72 273.283 102.165L273.309 100.709C273.309 98.6986 273.24 97.3293 273.101 96.6013C272.98 95.8559 272.858 95.2666 272.737 94.8333C272.442 93.8973 271.966 93.4293 271.307 93.4293C270.44 93.4293 269.834 93.7413 269.487 94.3653C269.106 95.0413 268.88 95.8386 268.811 96.7573C268.69 98.3693 268.629 100.077 268.629 101.879C268.629 102.226 268.499 102.503 268.239 102.711C267.979 102.919 267.667 103.023 267.303 103.023C266.87 103.023 266.653 102.746 266.653 102.191Z" fill="#444444"/>
<path d="M280.697 86.5653C281.009 86.5653 281.303 86.7126 281.581 87.0073C281.858 87.3019 281.997 87.6139 281.997 87.9433C281.997 88.2553 281.841 88.5759 281.529 88.9053C281.234 89.2346 280.922 89.3993 280.593 89.3993C280.263 89.3993 279.96 89.2606 279.683 88.9833C279.423 88.7059 279.293 88.3506 279.293 87.9173C279.293 87.0853 279.743 86.6346 280.645 86.5653C280.662 86.5653 280.679 86.5653 280.697 86.5653ZM281.789 100.189L281.815 102.009C281.815 102.339 281.685 102.616 281.425 102.841C281.165 103.049 280.887 103.153 280.593 103.153C280.159 103.153 279.934 102.937 279.917 102.503C279.691 96.9739 279.579 93.9146 279.579 93.3253C279.579 92.7359 279.605 92.0166 279.657 91.1673C279.691 90.8553 279.891 90.6993 280.255 90.6993C281.173 90.6993 281.693 91.0719 281.815 91.8173C281.867 92.1986 281.893 92.5019 281.893 92.7273L281.789 94.3653V100.189Z" fill="#444444"/>
<path d="M290.099 90.9593C291.018 90.9593 291.893 91.2279 292.725 91.7653C293.557 92.3026 293.973 92.9699 293.973 93.7673C293.973 94.5473 293.635 95.3099 292.959 96.0553C292.283 96.7833 291.382 97.2253 290.255 97.3813C289.77 97.4506 289.042 97.4853 288.071 97.4853C288.262 98.9586 288.635 99.9293 289.189 100.397C289.363 100.588 289.597 100.683 289.891 100.683C290.966 100.683 291.867 100.345 292.595 99.6693C293.323 98.9759 293.843 98.6293 294.155 98.6293C294.294 98.6293 294.502 98.7593 294.779 99.0193C295.057 99.2793 295.195 99.5219 295.195 99.7473C295.195 100.198 294.649 100.848 293.557 101.697C293.072 102.096 292.483 102.434 291.789 102.711C291.113 102.971 290.481 103.101 289.891 103.101C288.383 103.101 287.274 102.131 286.563 100.189C286.113 98.9933 285.887 97.6759 285.887 96.2373C285.887 94.7986 286.225 93.5593 286.901 92.5193C287.577 91.4793 288.643 90.9593 290.099 90.9593ZM290.229 92.7533C289.571 92.7533 289.007 93.1259 288.539 93.8713C288.366 94.1313 288.201 94.7206 288.045 95.6393C290.472 95.6393 291.685 95.0413 291.685 93.8453C291.685 93.1173 291.2 92.7533 290.229 92.7533Z" fill="#444444"/>
<path d="M298.717 94.1573C298.717 93.1346 299.081 92.3199 299.809 91.7133C300.537 91.1066 301.377 90.8033 302.331 90.8033C303.301 90.8033 304.229 90.9766 305.113 91.3233C305.997 91.6699 306.439 92.1293 306.439 92.7013C306.439 92.9959 306.326 93.2299 306.101 93.4033C305.875 93.5766 305.676 93.6633 305.503 93.6633C305.347 93.6633 305.217 93.6633 305.113 93.6633C305.026 93.6459 304.679 93.4813 304.073 93.1693C303.483 92.8573 302.937 92.7013 302.435 92.7013C301.932 92.7013 301.499 92.8313 301.135 93.0913C300.788 93.3339 300.615 93.6979 300.615 94.1833C300.615 94.6686 300.814 95.0499 301.213 95.3273C301.629 95.6046 302.348 95.8473 303.371 96.0553C304.393 96.2459 305.173 96.5233 305.711 96.8873C306.265 97.2513 306.543 97.9273 306.543 98.9153C306.543 100.354 306.161 101.377 305.399 101.983C304.653 102.573 303.743 102.867 302.669 102.867C301.594 102.867 300.675 102.72 299.913 102.425C299.167 102.131 298.795 101.689 298.795 101.099C298.795 100.423 299.133 100.085 299.809 100.085C299.982 100.085 300.363 100.207 300.953 100.449C301.542 100.692 302.123 100.813 302.695 100.813C303.284 100.813 303.726 100.631 304.021 100.267C304.333 99.8859 304.489 99.4526 304.489 98.9673C304.489 98.4819 304.289 98.1353 303.891 97.9273C303.492 97.7019 302.885 97.5199 302.071 97.3813C301.256 97.2426 300.658 97.0953 300.277 96.9393C299.237 96.5233 298.717 95.5959 298.717 94.1573Z" fill="#444444"/>
<path d="M196.139 122.869C196.208 122.575 196.356 122.332 196.581 122.141C196.806 121.933 197.032 121.829 197.257 121.829C197.5 121.829 197.682 121.873 197.803 121.959C197.942 122.046 198.02 122.124 198.037 122.193C198.072 122.263 198.106 122.384 198.141 122.557C198.037 123.909 197.985 125.131 197.985 126.223C197.985 127.298 198.115 128.537 198.375 129.941C198.635 131.328 198.921 132.021 199.233 132.021C199.701 132.021 200.29 131.761 201.001 131.241C201.729 130.721 202.249 130.175 202.561 129.603C202.353 127.107 202.249 124.967 202.249 123.181C202.249 122.817 202.362 122.505 202.587 122.245C202.83 121.985 203.116 121.855 203.445 121.855C203.982 121.855 204.251 122.219 204.251 122.947C204.251 124.178 204.338 126.007 204.511 128.433C204.702 130.86 204.892 132.403 205.083 133.061C205.118 133.2 205.135 133.365 205.135 133.555C205.135 133.729 205.014 133.893 204.771 134.049C204.546 134.223 204.242 134.309 203.861 134.309C203.497 134.309 203.254 134.101 203.133 133.685C203.098 133.339 203.012 132.819 202.873 132.125C201.66 133.391 200.438 134.023 199.207 134.023C198.635 134.023 198.124 133.807 197.673 133.373C197.222 132.94 196.867 132.351 196.607 131.605C196.156 130.167 195.931 128.815 195.931 127.549C195.931 126.284 196 124.724 196.139 122.869Z" fill="#444444"/>
<path d="M208.603 125.157C208.603 124.135 208.967 123.32 209.695 122.713C210.423 122.107 211.264 121.803 212.217 121.803C213.188 121.803 214.115 121.977 214.999 122.323C215.883 122.67 216.325 123.129 216.325 123.701C216.325 123.996 216.213 124.23 215.987 124.403C215.762 124.577 215.563 124.663 215.389 124.663C215.233 124.663 215.103 124.663 214.999 124.663C214.913 124.646 214.566 124.481 213.959 124.169C213.37 123.857 212.824 123.701 212.321 123.701C211.819 123.701 211.385 123.831 211.021 124.091C210.675 124.334 210.501 124.698 210.501 125.183C210.501 125.669 210.701 126.05 211.099 126.327C211.515 126.605 212.235 126.847 213.257 127.055C214.28 127.246 215.06 127.523 215.597 127.887C216.152 128.251 216.429 128.927 216.429 129.915C216.429 131.354 216.048 132.377 215.285 132.983C214.54 133.573 213.63 133.867 212.555 133.867C211.481 133.867 210.562 133.72 209.799 133.425C209.054 133.131 208.681 132.689 208.681 132.099C208.681 131.423 209.019 131.085 209.695 131.085C209.869 131.085 210.25 131.207 210.839 131.449C211.429 131.692 212.009 131.813 212.581 131.813C213.171 131.813 213.613 131.631 213.907 131.267C214.219 130.886 214.375 130.453 214.375 129.967C214.375 129.482 214.176 129.135 213.777 128.927C213.379 128.702 212.772 128.52 211.957 128.381C211.143 128.243 210.545 128.095 210.163 127.939C209.123 127.523 208.603 126.596 208.603 125.157Z" fill="#444444"/>
<path d="M221.441 117.565C221.753 117.565 222.048 117.713 222.325 118.007C222.603 118.302 222.741 118.614 222.741 118.943C222.741 119.255 222.585 119.576 222.273 119.905C221.979 120.235 221.667 120.399 221.337 120.399C221.008 120.399 220.705 120.261 220.427 119.983C220.167 119.706 220.037 119.351 220.037 118.917C220.037 118.085 220.488 117.635 221.389 117.565C221.407 117.565 221.424 117.565 221.441 117.565ZM222.533 131.189L222.559 133.009C222.559 133.339 222.429 133.616 222.169 133.841C221.909 134.049 221.632 134.153 221.337 134.153C220.904 134.153 220.679 133.937 220.661 133.503C220.436 127.974 220.323 124.915 220.323 124.325C220.323 123.736 220.349 123.017 220.401 122.167C220.436 121.855 220.635 121.699 220.999 121.699C221.918 121.699 222.438 122.072 222.559 122.817C222.611 123.199 222.637 123.502 222.637 123.727L222.533 125.365V131.189Z" fill="#444444"/>
<path d="M228.088 133.191L227.802 122.635C227.802 122.306 227.914 122.037 228.14 121.829C228.365 121.621 228.59 121.517 228.816 121.517C229.37 121.517 229.691 121.751 229.778 122.219C229.847 122.687 229.882 123.173 229.882 123.675C230.818 122.445 231.988 121.829 233.392 121.829C235.541 121.829 236.616 124.282 236.616 129.187C236.616 129.638 236.616 130.323 236.616 131.241C236.616 132.143 236.564 132.801 236.46 133.217C236.338 133.737 235.966 133.997 235.342 133.997C234.926 133.997 234.718 133.72 234.718 133.165L234.744 131.709C234.744 129.699 234.674 128.329 234.536 127.601C234.414 126.856 234.293 126.267 234.172 125.833C233.877 124.897 233.4 124.429 232.742 124.429C231.875 124.429 231.268 124.741 230.922 125.365C230.54 126.041 230.315 126.839 230.246 127.757C230.124 129.369 230.064 131.077 230.064 132.879C230.064 133.226 229.934 133.503 229.674 133.711C229.414 133.919 229.102 134.023 228.738 134.023C228.304 134.023 228.088 133.746 228.088 133.191Z" fill="#444444"/>
<path d="M247.877 132.931C247.253 133.659 246.465 134.023 245.511 134.023C244.558 134.023 243.735 133.729 243.041 133.139C241.585 132.013 240.857 130.288 240.857 127.965C240.857 126.145 241.36 124.689 242.365 123.597C243.371 122.488 244.61 121.933 246.083 121.933C247.557 121.933 248.562 122.436 249.099 123.441C249.567 124.325 249.801 125.66 249.801 127.445L249.749 129.577C249.749 130.583 249.793 131.978 249.879 133.763C249.983 135.531 250.035 136.866 250.035 137.767C250.035 139.258 249.663 140.35 248.917 141.043C248.189 141.754 247.071 142.109 245.563 142.109C244.662 142.109 243.743 141.919 242.807 141.537C241.871 141.156 241.403 140.714 241.403 140.211C241.403 139.847 241.499 139.57 241.689 139.379C241.897 139.189 242.131 139.093 242.391 139.093C242.651 139.093 243.232 139.284 244.133 139.665C245.052 140.047 245.711 140.237 246.109 140.237C247.357 140.237 247.981 139.215 247.981 137.169C247.981 135.124 247.947 133.711 247.877 132.931ZM247.851 127.445C247.851 126.18 247.661 125.296 247.279 124.793C246.915 124.273 246.335 124.013 245.537 124.013C244.74 124.013 244.099 124.377 243.613 125.105C243.128 125.833 242.885 126.761 242.885 127.887C242.885 128.997 243.111 129.881 243.561 130.539C244.029 131.198 244.74 131.527 245.693 131.527C246.647 131.527 247.262 131.12 247.539 130.305C247.747 129.647 247.851 128.693 247.851 127.445Z" fill="#444444"/>
<path d="M263.212 132.879C263.212 133.191 263.073 133.477 262.796 133.737C262.518 133.98 262.215 134.101 261.886 134.101C261.574 134.101 261.357 133.893 261.236 133.477C261.184 131.189 261.158 128.91 261.158 126.639L261.08 120.087C261.08 118.77 261.66 117.869 262.822 117.383C263.758 116.95 264.867 116.733 266.15 116.733C266.808 116.733 267.51 116.898 268.256 117.227C269.018 117.539 269.694 118.007 270.284 118.631C270.89 119.238 271.194 119.905 271.194 120.633C271.194 121.344 270.864 122.115 270.206 122.947C269.547 123.762 268.732 124.49 267.762 125.131C266.791 125.755 265.846 126.223 264.928 126.535C266.54 127.662 267.944 128.875 269.14 130.175C270.336 131.458 270.934 132.455 270.934 133.165C270.934 133.391 270.821 133.607 270.596 133.815C270.37 134.006 270.093 134.101 269.764 134.101C269.452 134.101 269.183 133.963 268.958 133.685C268.576 132.767 267.848 131.805 266.774 130.799C265.716 129.777 264.477 128.806 263.056 127.887L263.212 132.879ZM263.108 125.079C264.269 125.027 265.569 124.542 267.008 123.623C268.464 122.705 269.192 121.881 269.192 121.153C269.192 120.408 268.828 119.836 268.1 119.437C267.372 119.039 266.505 118.839 265.5 118.839C264.512 118.839 263.723 118.961 263.134 119.203C263.116 120.087 263.108 122.046 263.108 125.079Z" fill="#444444"/>
<path d="M279.074 121.881C280.322 121.881 281.345 122.479 282.142 123.675C282.957 124.871 283.364 126.31 283.364 127.991C283.364 129.655 282.948 131.077 282.116 132.255C281.302 133.434 280.21 134.023 278.84 134.023C277.488 134.023 276.396 133.425 275.564 132.229C274.732 131.016 274.316 129.673 274.316 128.199C274.316 126.31 274.698 124.802 275.46 123.675C276.275 122.479 277.48 121.881 279.074 121.881ZM278.762 124.013C278.034 124.013 277.436 124.395 276.968 125.157C276.5 125.92 276.266 126.726 276.266 127.575C276.266 128.893 276.526 129.898 277.046 130.591C277.566 131.285 278.156 131.631 278.814 131.631C279.993 131.631 280.747 131.12 281.076 130.097C281.215 129.612 281.284 129.005 281.284 128.277C281.284 125.435 280.444 124.013 278.762 124.013Z" fill="#444444"/>
<path d="M295.801 132.827C295.801 133.642 295.428 134.049 294.683 134.049C294.371 134.049 293.946 133.287 293.409 131.761C292.871 130.219 292.152 129.031 291.251 128.199C291.164 128.321 290.791 128.667 290.133 129.239C289.491 129.794 289.11 130.132 288.989 130.253V132.853C288.954 133.113 288.911 133.313 288.859 133.451C288.807 133.59 288.685 133.72 288.495 133.841C288.321 133.963 288.079 134.023 287.767 134.023C287.299 134.023 287.065 133.737 287.065 133.165C287.065 131.553 286.995 129.057 286.857 125.677C286.718 122.28 286.649 119.238 286.649 116.551C286.649 116.222 286.779 115.962 287.039 115.771C287.316 115.581 287.602 115.485 287.897 115.485C288.295 115.485 288.538 115.737 288.625 116.239V120.841C288.625 121.396 288.633 121.812 288.651 122.089C288.668 122.367 288.685 122.783 288.703 123.337C288.737 124.481 288.798 125.773 288.885 127.211C289.387 126.83 290.029 126.232 290.809 125.417C291.606 124.585 292.204 123.875 292.603 123.285C293.227 122.297 293.799 121.803 294.319 121.803C294.457 121.803 294.596 121.838 294.735 121.907C295.099 122.115 295.281 122.358 295.281 122.635C295.281 122.913 295.159 123.277 294.917 123.727C294.293 124.802 293.573 125.781 292.759 126.665C293.539 127.532 294.319 128.771 295.099 130.383C295.567 131.423 295.801 132.238 295.801 132.827Z" fill="#444444"/>
<path d="M299.52 121.855L300.82 121.881C301.114 121.881 301.279 121.873 301.314 121.855V116.525C301.331 116.231 301.478 115.979 301.756 115.771C302.033 115.563 302.293 115.459 302.536 115.459C302.778 115.459 302.969 115.537 303.108 115.693C303.264 115.849 303.333 116.092 303.316 116.421C303.298 116.751 303.29 118.553 303.29 121.829L306.332 121.725C306.852 121.725 307.112 122.029 307.112 122.635C307.112 123.086 306.973 123.424 306.696 123.649C306.436 123.875 306.15 123.996 305.838 124.013C305.543 124.031 305.248 124.039 304.954 124.039L303.368 124.013C303.368 124.724 303.437 126.128 303.576 128.225C303.732 130.323 303.853 131.683 303.94 132.307C304.026 132.914 304.044 133.313 303.992 133.503C303.94 133.677 303.844 133.798 303.706 133.867C303.48 133.971 303.177 134.023 302.796 134.023C302.414 134.023 302.189 133.815 302.12 133.399C301.773 131.129 301.539 128.009 301.418 124.039C301.262 124.057 300.664 124.065 299.624 124.065C298.584 124.065 298.064 123.762 298.064 123.155C298.064 122.289 298.549 121.855 299.52 121.855Z" fill="#444444"/>
<path d="M82.3442 3.65904C76.689 4.73925 71.2667 5.79828 65.8445 6.83613C64.7643 7.04793 64.0018 7.1962 62.6039 7.23856C61.566 7.28092 59.3633 7.32328 59.5539 6.20071C59.808 5.28995 60.1046 4.67571 61.9473 4.12501C66.7129 2.7271 71.648 2.04932 76.5407 1.35036C80.8615 0.736126 84.1657 0.333696 88.0206 0.0159872C89.8209 -0.132277 90.541 0.757307 90.3292 2.40939C90.1386 3.89203 89.9692 5.41703 89.5032 6.83613C87.8511 11.9618 86.0719 17.024 84.3351 22.1285C84.1233 22.7639 83.9962 23.2722 83.6362 23.9924C83.1914 24.8608 82.916 25.5174 82.0053 25.2632C81.1369 25.0302 81.1792 23.7594 81.3275 23.124C82.4501 17.7865 84.9494 6.81495 84.9494 6.20071C82.1747 7.97988 79.5695 9.56842 77.049 11.3052C59.5539 23.484 43.0754 36.8066 29.9646 53.8781C19.5862 67.3913 10.9869 81.9 4.63271 97.7219C4.25146 98.6538 3.78548 99.5646 3.31951 100.433C2.70528 101.619 2.17576 102.127 1.54035 101.852C0.417776 101.174 0.629581 100.264 0.735484 99.5222C0.926109 98.0396 1.43444 96.5781 1.9216 95.159C8.63583 76.2448 19.3108 59.6816 32.2098 44.4528C45.4476 28.8215 61.6296 16.791 78.8917 6.09481C79.8237 5.56529 82.0053 4.04029 82.3442 3.65904Z" fill="#444444"/>
<path d="M161.08 211.531C160.586 211.485 160.136 211.453 159.684 211.401C151.247 210.433 142.799 210.434 134.32 210.764C130.968 210.892 127.598 210.358 124.234 210.218C123.607 210.193 122.895 210.478 122.345 210.82C121.374 211.423 120.499 211.458 119.5 210.916C118.936 210.61 118.274 210.399 117.636 210.339C112.036 209.818 106.533 210.8 101.051 211.657C95.9244 212.463 90.8007 212.132 85.6709 212.216C84.5354 212.237 83.3921 212.191 82.2598 212.278C77.2664 212.651 72.2843 213.204 67.2837 213.404C63.3787 213.56 59.4543 213.223 55.5379 213.252C53.0593 213.269 50.5855 213.535 48.1089 213.731C44.7347 213.998 41.3705 214.158 38.1642 212.772C35.698 211.704 35.501 210.112 37.5216 208.3C37.8322 208.02 37.9523 207.432 38.0048 206.968C39.2864 195.406 39.4843 183.86 38.2139 172.252C37.6078 166.687 37.964 161.006 38.0031 155.375C38.0738 145.896 38.4015 136.414 38.2948 126.938C38.238 122.136 37.5378 117.331 36.9898 112.544C36.6265 109.381 37.7647 107.928 40.9425 107.816C42.3699 107.766 43.7992 107.646 45.2135 107.436C47.8626 107.041 50.4697 107.096 53.1372 107.406C58.0114 107.962 62.8872 107.7 67.7318 106.82C69.3735 106.524 71.0674 106.517 72.8962 106.364C72.8826 106.41 72.9836 106.227 73.0013 106.037C73.6309 98.8729 73.8191 91.6912 73.9424 84.5035C74.0124 80.4444 74.2645 76.3835 74.4279 72.3237C74.5127 70.2097 74.635 68.0946 74.6265 65.9814C74.6141 62.5563 76.2861 61.0819 79.6235 61.5612C80.8573 61.737 82.1336 61.7059 83.3831 61.663C89.6967 61.4404 96.0118 61.2508 102.318 60.9058C104.747 60.7712 107.152 60.241 109.57 59.9181C110.562 59.7856 111.566 59.7245 112.668 59.621C112.358 56.5335 111.971 53.5186 111.773 50.493C111.543 46.9961 111.362 43.485 111.362 39.9768C111.364 35.1946 111.524 30.4133 111.67 25.6352C111.819 20.6372 112.366 19.8685 117.244 19.0252C124.763 17.7298 132.309 16.5962 139.991 17.3628C141.821 17.5472 143.708 17.1656 145.544 17.3365C148.338 17.5965 151.197 17.7972 153.867 18.5843C157.64 19.6944 160.016 22.3278 160.665 26.4305C161.195 29.8101 162.324 33.119 162.568 36.5094C163.037 42.9982 163.339 49.5276 163.223 56.0321C163.053 65.4778 163.273 74.8896 163.667 84.3316C164.13 95.4429 163.745 106.592 163.758 117.727C163.769 126.276 163.63 134.835 163.94 143.379C164.097 147.708 165.327 151.986 165.665 156.322C166.213 163.366 166.46 170.434 166.764 177.493C167.041 183.833 167.42 190.182 167.389 196.526C167.36 202.106 166.822 207.686 166.512 213.264C166.469 214.024 166.505 214.795 166.403 215.544C166.196 217.061 165.16 218.019 163.821 218.021C162.416 218.026 161.325 217.02 161.195 215.458C161.088 214.202 161.123 212.931 161.089 211.537L161.08 211.531ZM161.695 204.881C161.618 198.494 161.565 192.494 161.457 186.493C161.42 184.335 161.261 182.18 161.154 180.025C160.774 172.336 160.525 164.636 159.971 156.954C159.638 152.365 158.479 147.822 158.314 143.235C158.047 135.627 158.277 128.004 158.305 120.386C158.348 108.999 158.7 97.6025 158.354 86.2306C158.046 76.1595 157.616 66.1006 158.008 56.0245C158.366 46.8164 157.781 37.6704 156.257 28.5822C155.75 25.5654 154.228 23.8265 151.243 23.3706C149.297 23.0724 147.307 23.0088 145.337 22.9753C143.488 22.9391 141.621 23.2477 139.782 23.1093C132.75 22.5811 125.822 23.5943 118.877 24.3857C117.826 24.5033 117.503 24.8713 117.494 25.9619C117.455 31.5462 117.309 37.1252 117.218 42.7094C117.193 44.2762 117.211 45.8422 117.233 47.4087C117.293 52.5245 117.479 57.6426 117.399 62.7594C117.323 67.5908 117.281 72.3973 117.883 77.2075C118.521 82.3256 119.327 87.4499 119.539 92.5938C119.908 101.556 119.795 110.534 120.033 119.502C120.424 134.391 120.905 149.275 121.408 164.16C121.833 176.678 122.348 189.19 122.807 201.701C122.83 202.397 122.848 202.857 123.769 202.943C129.307 203.477 134.841 203.716 140.419 203.626C145.203 203.547 150 203.984 154.784 204.252C156.956 204.374 159.124 204.642 161.686 204.88L161.695 204.881ZM116.323 202.999C116.344 202.528 116.383 202.199 116.367 201.87C116.038 194.134 115.611 186.399 115.403 178.66C115.218 171.725 115.249 164.781 115.237 157.839C115.228 153.224 115.462 148.609 115.331 144.002C114.941 129.951 114.425 115.907 113.969 101.86C113.839 97.8432 113.93 93.8094 113.588 89.815C112.936 82.1897 112.053 74.5852 111.256 66.9698C111.242 66.8186 111.153 66.6744 111.056 66.4125C110.027 66.5884 109.043 66.7872 108.051 66.9243C106.217 67.1798 104.388 67.5295 102.542 67.6199C95.7702 67.9544 88.9924 68.204 82.2183 68.4633C81.5908 68.4892 81.2155 68.562 81.1664 69.3397C80.972 72.3802 80.717 75.4197 80.4667 78.4597C79.6163 88.7461 78.7429 99.0303 77.9208 109.315C77.7449 111.504 77.7217 113.708 77.6707 115.91C77.6474 116.961 77.8512 118.03 76.8046 118.799C76.5944 118.952 76.59 119.5 76.6127 119.858C76.7664 122.266 76.8919 124.676 77.1398 127.074C78.0766 136.252 79.3894 145.401 79.9321 154.603C80.4889 164.056 80.3837 173.555 80.4294 183.034C80.4642 190.227 80.2798 197.419 80.1935 204.61C80.1915 204.732 80.2459 204.849 80.2558 204.892C82.6852 204.903 85.0849 204.981 87.4754 204.909C91.5077 204.787 95.5472 204.69 99.5703 204.367C103.683 204.038 107.766 203.416 111.872 203.011C113.322 202.87 114.798 202.993 116.323 202.995L116.323 202.999ZM70.7498 112.183C70.1618 112.236 69.7417 112.239 69.3373 112.324C63.0043 113.608 56.6565 113.747 50.2255 113.027C47.9082 112.764 45.4929 113.354 43.0764 113.556C43.1071 114.079 43.1027 114.326 43.1403 114.573C44.3528 122.644 44.4508 130.761 44.0946 138.897C43.7302 147.271 43.3104 155.639 42.946 164.013C42.8318 166.593 42.6747 169.182 42.7943 171.755C43.3458 183.47 42.733 195.113 40.8899 206.694C40.8424 207.003 40.8551 207.318 40.8321 207.765C43.2493 207.405 45.532 207.037 47.823 206.73C49.6559 206.484 51.5007 206.159 53.3423 206.12C60.1203 205.969 66.8965 205.887 73.673 205.853C74.7836 205.849 75.1436 205.489 75.1594 204.418C75.1984 201.794 75.4006 199.171 75.3833 196.551C75.3467 190.58 75.0629 184.61 75.1608 178.647C75.3866 164.396 74.5988 150.21 72.8162 136.086C71.9027 128.863 70.8894 121.658 70.9727 114.349C70.9786 113.685 70.8402 113.016 70.7498 112.183Z" fill="#444444"/>
<path d="M585.621 110.345C585.5 108.56 585.439 106.151 585.439 103.117C585.439 100.067 585.483 98.0906 585.569 97.1893C585.656 96.6346 586.037 96.2706 586.713 96.0973C587.389 95.9066 588.282 95.8113 589.391 95.8113C591.021 95.8113 592.39 96.1666 593.499 96.8773C594.626 97.5706 595.189 98.6019 595.189 99.9713C595.189 101.098 595.033 102.043 594.721 102.805C594.409 103.551 594.019 104.105 593.551 104.469C592.789 105.059 591.662 105.353 590.171 105.353C589.53 105.353 588.689 105.267 587.649 105.093C587.736 108.56 587.771 110.744 587.753 111.645C587.736 112.547 587.433 112.997 586.843 112.997C586.462 112.997 586.219 112.928 586.115 112.789C586.011 112.651 585.942 112.555 585.907 112.503C585.873 112.434 585.838 112.339 585.803 112.217C585.769 112.096 585.743 112.001 585.725 111.931C585.708 111.845 585.691 111.723 585.673 111.567C585.673 111.411 585.665 111.29 585.647 111.203C585.63 110.943 585.621 110.657 585.621 110.345ZM593.031 100.049C593.031 99.3386 592.65 98.7839 591.887 98.3853C591.125 97.9693 590.31 97.7613 589.443 97.7613C588.577 97.7613 587.97 97.8393 587.623 97.9953C587.554 99.0179 587.519 99.9626 587.519 100.829C587.519 101.679 587.554 102.45 587.623 103.143C588.091 103.195 588.412 103.239 588.585 103.273C589.036 103.325 589.417 103.351 589.729 103.351C590.059 103.351 590.275 103.351 590.379 103.351C590.501 103.334 590.717 103.308 591.029 103.273C591.359 103.221 591.593 103.143 591.731 103.039C591.87 102.935 592.043 102.797 592.251 102.623C592.459 102.45 592.607 102.251 592.693 102.025C592.919 101.401 593.031 100.743 593.031 100.049Z" fill="#444444"/>
<path d="M602.949 100.959C603.868 100.959 604.743 101.228 605.575 101.765C606.407 102.303 606.823 102.97 606.823 103.767C606.823 104.547 606.485 105.31 605.809 106.055C605.133 106.783 604.232 107.225 603.105 107.381C602.62 107.451 601.892 107.485 600.921 107.485C601.112 108.959 601.484 109.929 602.039 110.397C602.212 110.588 602.446 110.683 602.741 110.683C603.816 110.683 604.717 110.345 605.445 109.669C606.173 108.976 606.693 108.629 607.005 108.629C607.144 108.629 607.352 108.759 607.629 109.019C607.906 109.279 608.045 109.522 608.045 109.747C608.045 110.198 607.499 110.848 606.407 111.697C605.922 112.096 605.332 112.434 604.639 112.711C603.963 112.971 603.33 113.101 602.741 113.101C601.233 113.101 600.124 112.131 599.413 110.189C598.962 108.993 598.737 107.676 598.737 106.237C598.737 104.799 599.075 103.559 599.751 102.519C600.427 101.479 601.493 100.959 602.949 100.959ZM603.079 102.753C602.42 102.753 601.857 103.126 601.389 103.871C601.216 104.131 601.051 104.721 600.895 105.639C603.322 105.639 604.535 105.041 604.535 103.845C604.535 103.117 604.05 102.753 603.079 102.753Z" fill="#444444"/>
<path d="M615.726 100.881C616.974 100.881 617.997 101.479 618.794 102.675C619.609 103.871 620.016 105.31 620.016 106.991C620.016 108.655 619.6 110.077 618.768 111.255C617.954 112.434 616.862 113.023 615.492 113.023C614.14 113.023 613.048 112.425 612.216 111.229C611.384 110.016 610.968 108.673 610.968 107.199C610.968 105.31 611.35 103.802 612.112 102.675C612.927 101.479 614.132 100.881 615.726 100.881ZM615.414 103.013C614.686 103.013 614.088 103.395 613.62 104.157C613.152 104.92 612.918 105.726 612.918 106.575C612.918 107.893 613.178 108.898 613.698 109.591C614.218 110.285 614.808 110.631 615.466 110.631C616.645 110.631 617.399 110.12 617.728 109.097C617.867 108.612 617.936 108.005 617.936 107.277C617.936 104.435 617.096 103.013 615.414 103.013Z" fill="#444444"/>
<path d="M627.279 112.971C626.689 112.971 626.143 112.772 625.641 112.373C625.641 112.373 625.528 112.278 625.303 112.087V119.887C625.199 120.234 625.017 120.52 624.757 120.745C624.497 120.988 624.219 121.109 623.925 121.109C623.474 121.109 623.249 120.806 623.249 120.199V102.077C623.353 101.627 623.474 101.306 623.613 101.115C623.769 100.925 624.003 100.829 624.315 100.829C624.644 100.829 624.852 100.907 624.939 101.063C625.043 101.202 625.164 101.601 625.303 102.259C625.372 101.913 625.649 101.592 626.135 101.297C626.62 101.003 627.27 100.855 628.085 100.855C629.853 100.855 631.109 101.497 631.855 102.779C632.6 104.062 632.973 105.579 632.973 107.329C632.973 109.063 632.461 110.441 631.439 111.463C630.433 112.469 629.047 112.971 627.279 112.971ZM625.303 105.171V110.007C625.407 110.059 625.528 110.146 625.667 110.267C626.169 110.718 626.715 110.943 627.305 110.943C629.697 110.943 630.893 109.713 630.893 107.251C630.893 105.154 630.355 103.828 629.281 103.273C628.83 103.031 628.275 102.909 627.617 102.909C626.975 102.996 626.429 103.282 625.979 103.767C625.528 104.235 625.303 104.703 625.303 105.171Z" fill="#444444"/>
<path d="M635.774 96.1753C635.826 95.5166 635.93 95.0919 636.086 94.9013C636.259 94.6933 636.528 94.5893 636.892 94.5893C637.637 94.5893 638.01 94.8926 638.01 95.4993C638.01 95.9673 637.966 97.1893 637.88 99.1653C637.81 101.141 637.776 102.909 637.776 104.469C637.776 106.029 637.836 107.286 637.958 108.239C638.166 109.903 638.46 110.735 638.842 110.735C639.223 110.735 639.509 110.467 639.7 109.929C639.786 109.721 639.925 109.539 640.116 109.383C640.306 109.21 640.549 109.123 640.844 109.123C641.45 109.123 641.754 109.635 641.754 110.657C641.754 111.212 641.45 111.767 640.844 112.321C640.254 112.859 639.665 113.127 639.076 113.127C638.486 113.127 638.01 113.032 637.646 112.841C637.299 112.633 637.013 112.33 636.788 111.931C636.58 111.533 636.406 111.151 636.268 110.787C636.146 110.406 636.06 109.947 636.008 109.409C635.904 108.543 635.826 107.156 635.774 105.249C635.739 103.325 635.722 101.497 635.722 99.7633C635.722 98.0126 635.739 96.8166 635.774 96.1753Z" fill="#444444"/>
<path d="M648.062 100.959C648.981 100.959 649.856 101.228 650.688 101.765C651.52 102.303 651.936 102.97 651.936 103.767C651.936 104.547 651.598 105.31 650.922 106.055C650.246 106.783 649.345 107.225 648.218 107.381C647.733 107.451 647.005 107.485 646.034 107.485C646.225 108.959 646.597 109.929 647.152 110.397C647.325 110.588 647.559 110.683 647.854 110.683C648.929 110.683 649.83 110.345 650.558 109.669C651.286 108.976 651.806 108.629 652.118 108.629C652.257 108.629 652.465 108.759 652.742 109.019C653.019 109.279 653.158 109.522 653.158 109.747C653.158 110.198 652.612 110.848 651.52 111.697C651.035 112.096 650.445 112.434 649.752 112.711C649.076 112.971 648.443 113.101 647.854 113.101C646.346 113.101 645.237 112.131 644.526 110.189C644.075 108.993 643.85 107.676 643.85 106.237C643.85 104.799 644.188 103.559 644.864 102.519C645.54 101.479 646.606 100.959 648.062 100.959ZM648.192 102.753C647.533 102.753 646.97 103.126 646.502 103.871C646.329 104.131 646.164 104.721 646.008 105.639C648.435 105.639 649.648 105.041 649.648 103.845C649.648 103.117 649.163 102.753 648.192 102.753Z" fill="#444444"/>
<path d="M667.534 100.959C668.452 100.959 669.327 101.228 670.159 101.765C670.991 102.303 671.408 102.97 671.408 103.767C671.408 104.547 671.069 105.31 670.393 106.055C669.717 106.783 668.816 107.225 667.69 107.381C667.204 107.451 666.476 107.485 665.505 107.485C665.696 108.959 666.069 109.929 666.624 110.397C666.797 110.588 667.031 110.683 667.326 110.683C668.4 110.683 669.302 110.345 670.03 109.669C670.758 108.976 671.278 108.629 671.59 108.629C671.728 108.629 671.936 108.759 672.214 109.019C672.491 109.279 672.63 109.522 672.63 109.747C672.63 110.198 672.084 110.848 670.992 111.697C670.506 112.096 669.917 112.434 669.224 112.711C668.548 112.971 667.915 113.101 667.326 113.101C665.818 113.101 664.708 112.131 663.997 110.189C663.547 108.993 663.322 107.676 663.322 106.237C663.322 104.799 663.66 103.559 664.336 102.519C665.012 101.479 666.078 100.959 667.534 100.959ZM667.664 102.753C667.005 102.753 666.442 103.126 665.974 103.871C665.8 104.131 665.635 104.721 665.479 105.639C667.906 105.639 669.12 105.041 669.12 103.845C669.12 103.117 668.634 102.753 667.664 102.753Z" fill="#444444"/>
<path d="M676.697 112.191L676.411 101.635C676.411 101.306 676.524 101.037 676.749 100.829C676.974 100.621 677.2 100.517 677.425 100.517C677.98 100.517 678.3 100.751 678.387 101.219C678.456 101.687 678.491 102.173 678.491 102.675C679.427 101.445 680.597 100.829 682.001 100.829C684.15 100.829 685.225 103.282 685.225 108.187C685.225 108.638 685.225 109.323 685.225 110.241C685.225 111.143 685.173 111.801 685.069 112.217C684.948 112.737 684.575 112.997 683.951 112.997C683.535 112.997 683.327 112.72 683.327 112.165L683.353 110.709C683.353 108.699 683.284 107.329 683.145 106.601C683.024 105.856 682.902 105.267 682.781 104.833C682.486 103.897 682.01 103.429 681.351 103.429C680.484 103.429 679.878 103.741 679.531 104.365C679.15 105.041 678.924 105.839 678.855 106.757C678.734 108.369 678.673 110.077 678.673 111.879C678.673 112.226 678.543 112.503 678.283 112.711C678.023 112.919 677.711 113.023 677.347 113.023C676.914 113.023 676.697 112.746 676.697 112.191Z" fill="#444444"/>
<path d="M696.487 111.931C695.863 112.659 695.074 113.023 694.121 113.023C693.167 113.023 692.344 112.729 691.651 112.139C690.195 111.013 689.467 109.288 689.467 106.965C689.467 105.145 689.969 103.689 690.975 102.597C691.98 101.488 693.219 100.933 694.693 100.933C696.166 100.933 697.171 101.436 697.709 102.441C698.177 103.325 698.411 104.66 698.411 106.445L698.359 108.577C698.359 109.583 698.402 110.978 698.489 112.763C698.593 114.531 698.645 115.866 698.645 116.767C698.645 118.258 698.272 119.35 697.527 120.043C696.799 120.754 695.681 121.109 694.173 121.109C693.271 121.109 692.353 120.919 691.417 120.537C690.481 120.156 690.013 119.714 690.013 119.211C690.013 118.847 690.108 118.57 690.299 118.379C690.507 118.189 690.741 118.093 691.001 118.093C691.261 118.093 691.841 118.284 692.743 118.665C693.661 119.047 694.32 119.237 694.719 119.237C695.967 119.237 696.591 118.215 696.591 116.169C696.591 114.124 696.556 112.711 696.487 111.931ZM696.461 106.445C696.461 105.18 696.27 104.296 695.889 103.793C695.525 103.273 694.944 103.013 694.147 103.013C693.349 103.013 692.708 103.377 692.223 104.105C691.737 104.833 691.495 105.761 691.495 106.887C691.495 107.997 691.72 108.881 692.171 109.539C692.639 110.198 693.349 110.527 694.303 110.527C695.256 110.527 695.871 110.12 696.149 109.305C696.357 108.647 696.461 107.693 696.461 106.445Z" fill="#444444"/>
<path d="M709.417 100.855C710.18 100.855 710.561 101.505 710.561 102.805C710.561 102.944 710.561 103.091 710.561 103.247L710.509 105.067C710.492 105.639 710.483 106.203 710.483 106.757L710.873 112.633C710.873 113.067 710.431 113.283 709.547 113.283C709.495 113.283 709.365 113.283 709.157 113.283C708.966 113.283 708.828 113.205 708.741 113.049C708.672 112.893 708.663 112.703 708.715 112.477C708.784 112.252 708.767 112.001 708.663 111.723C707.866 112.573 706.808 112.997 705.491 112.997C703.047 112.997 701.825 111.108 701.825 107.329C701.825 105.232 702.215 103.646 702.995 102.571C703.792 101.497 704.928 100.959 706.401 100.959C707.094 100.959 707.788 101.081 708.481 101.323C708.706 101.011 709.018 100.855 709.417 100.855ZM706.713 103.221C705.725 103.221 704.988 103.507 704.503 104.079C704.018 104.651 703.775 105.7 703.775 107.225C703.775 109.791 704.468 111.073 705.855 111.073C706.219 111.073 706.618 110.909 707.051 110.579C707.502 110.25 707.814 109.877 707.987 109.461C708.316 108.525 708.481 107.503 708.481 106.393C708.481 105.284 708.342 104.478 708.065 103.975C707.805 103.473 707.354 103.221 706.713 103.221Z" fill="#444444"/>
<path d="M721.367 111.931C720.743 112.659 719.954 113.023 719.001 113.023C718.047 113.023 717.224 112.729 716.531 112.139C715.075 111.013 714.346 109.288 714.346 106.965C714.346 105.145 714.849 103.689 715.854 102.597C716.86 101.488 718.099 100.933 719.573 100.933C721.046 100.933 722.051 101.436 722.589 102.441C723.057 103.325 723.291 104.66 723.291 106.445L723.239 108.577C723.239 109.583 723.282 110.978 723.369 112.763C723.473 114.531 723.525 115.866 723.525 116.767C723.525 118.258 723.152 119.35 722.406 120.043C721.678 120.754 720.56 121.109 719.052 121.109C718.151 121.109 717.233 120.919 716.297 120.537C715.361 120.156 714.893 119.714 714.893 119.211C714.893 118.847 714.988 118.57 715.179 118.379C715.387 118.189 715.62 118.093 715.88 118.093C716.14 118.093 716.721 118.284 717.622 118.665C718.541 119.047 719.2 119.237 719.599 119.237C720.847 119.237 721.471 118.215 721.471 116.169C721.471 114.124 721.436 112.711 721.367 111.931ZM721.341 106.445C721.341 105.18 721.15 104.296 720.768 103.793C720.404 103.273 719.824 103.013 719.027 103.013C718.229 103.013 717.588 103.377 717.103 104.105C716.617 104.833 716.375 105.761 716.375 106.887C716.375 107.997 716.6 108.881 717.051 109.539C717.519 110.198 718.229 110.527 719.182 110.527C720.136 110.527 720.751 110.12 721.029 109.305C721.237 108.647 721.341 107.693 721.341 106.445Z" fill="#444444"/>
<path d="M728.759 96.5653C729.071 96.5653 729.365 96.7126 729.643 97.0073C729.92 97.3019 730.059 97.6139 730.059 97.9433C730.059 98.2553 729.903 98.5759 729.591 98.9053C729.296 99.2346 728.984 99.3993 728.655 99.3993C728.325 99.3993 728.022 99.2606 727.745 98.9833C727.485 98.7059 727.355 98.3506 727.355 97.9173C727.355 97.0853 727.805 96.6346 728.707 96.5653C728.724 96.5653 728.741 96.5653 728.759 96.5653ZM729.851 110.189L729.877 112.009C729.877 112.339 729.747 112.616 729.487 112.841C729.227 113.049 728.949 113.153 728.655 113.153C728.221 113.153 727.996 112.937 727.979 112.503C727.753 106.974 727.641 103.915 727.641 103.325C727.641 102.736 727.667 102.017 727.719 101.167C727.753 100.855 727.953 100.699 728.317 100.699C729.235 100.699 729.755 101.072 729.877 101.817C729.929 102.199 729.955 102.502 729.955 102.727L729.851 104.365V110.189Z" fill="#444444"/>
<path d="M735.405 112.191L735.119 101.635C735.119 101.306 735.232 101.037 735.457 100.829C735.682 100.621 735.908 100.517 736.133 100.517C736.688 100.517 737.008 100.751 737.095 101.219C737.164 101.687 737.199 102.173 737.199 102.675C738.135 101.445 739.305 100.829 740.709 100.829C742.858 100.829 743.933 103.282 743.933 108.187C743.933 108.638 743.933 109.323 743.933 110.241C743.933 111.143 743.881 111.801 743.777 112.217C743.656 112.737 743.283 112.997 742.659 112.997C742.243 112.997 742.035 112.72 742.035 112.165L742.061 110.709C742.061 108.699 741.992 107.329 741.853 106.601C741.732 105.856 741.61 105.267 741.489 104.833C741.194 103.897 740.718 103.429 740.059 103.429C739.192 103.429 738.586 103.741 738.239 104.365C737.858 105.041 737.632 105.839 737.563 106.757C737.442 108.369 737.381 110.077 737.381 111.879C737.381 112.226 737.251 112.503 736.991 112.711C736.731 112.919 736.419 113.023 736.055 113.023C735.622 113.023 735.405 112.746 735.405 112.191Z" fill="#444444"/>
<path d="M755.195 111.931C754.571 112.659 753.782 113.023 752.829 113.023C751.876 113.023 751.052 112.729 750.359 112.139C748.903 111.013 748.175 109.288 748.175 106.965C748.175 105.145 748.678 103.689 749.683 102.597C750.688 101.488 751.928 100.933 753.401 100.933C754.874 100.933 755.88 101.436 756.417 102.441C756.885 103.325 757.119 104.66 757.119 106.445L757.067 108.577C757.067 109.583 757.11 110.978 757.197 112.763C757.301 114.531 757.353 115.866 757.353 116.767C757.353 118.258 756.98 119.35 756.235 120.043C755.507 120.754 754.389 121.109 752.881 121.109C751.98 121.109 751.061 120.919 750.125 120.537C749.189 120.156 748.721 119.714 748.721 119.211C748.721 118.847 748.816 118.57 749.007 118.379C749.215 118.189 749.449 118.093 749.709 118.093C749.969 118.093 750.55 118.284 751.451 118.665C752.37 119.047 753.028 119.237 753.427 119.237C754.675 119.237 755.299 118.215 755.299 116.169C755.299 114.124 755.264 112.711 755.195 111.931ZM755.169 106.445C755.169 105.18 754.978 104.296 754.597 103.793C754.233 103.273 753.652 103.013 752.855 103.013C752.058 103.013 751.416 103.377 750.931 104.105C750.446 104.833 750.203 105.761 750.203 106.887C750.203 107.997 750.428 108.881 750.879 109.539C751.347 110.198 752.058 110.527 753.011 110.527C753.964 110.527 754.58 110.12 754.857 109.305C755.065 108.647 755.169 107.693 755.169 106.445Z" fill="#444444"/>
<path d="M611.124 143.971C610.535 143.971 609.963 142.827 609.408 140.539C608.871 138.234 608.602 135.651 608.602 132.791C608.602 132.497 608.723 132.271 608.966 132.115C609.226 131.942 609.46 131.855 609.668 131.855C609.876 131.855 610.041 131.925 610.162 132.063C610.301 132.185 610.37 132.349 610.37 132.557C610.37 135.261 610.829 137.861 611.748 140.357C611.887 140.149 612.103 139.733 612.398 139.109C612.693 138.468 612.97 138 613.23 137.705C613.49 137.411 613.802 137.263 614.166 137.263C614.53 137.263 614.911 137.532 615.31 138.069C615.709 138.607 616.047 139.187 616.324 139.811C616.619 140.418 616.783 140.739 616.818 140.773C617.286 139.317 617.52 137.965 617.52 136.717L617.364 132.765C617.347 132.505 617.468 132.289 617.728 132.115C617.988 131.925 618.239 131.829 618.482 131.829C618.985 131.829 619.236 132.809 619.236 134.767V136.197C619.236 138.52 618.881 140.591 618.17 142.411C617.789 143.451 617.312 143.971 616.74 143.971C616.411 143.971 616.107 143.763 615.83 143.347C615.553 142.914 615.241 142.307 614.894 141.527C614.547 140.747 614.279 140.21 614.088 139.915L613.308 141.449C613.013 142.056 612.788 142.498 612.632 142.775C612.476 143.035 612.259 143.304 611.982 143.581C611.705 143.841 611.419 143.971 611.124 143.971Z" fill="#444444"/>
<path d="M624.277 127.565C624.589 127.565 624.884 127.713 625.161 128.007C625.439 128.302 625.577 128.614 625.577 128.943C625.577 129.255 625.421 129.576 625.109 129.905C624.815 130.235 624.503 130.399 624.173 130.399C623.844 130.399 623.541 130.261 623.263 129.983C623.003 129.706 622.873 129.351 622.873 128.917C622.873 128.085 623.324 127.635 624.225 127.565C624.243 127.565 624.26 127.565 624.277 127.565ZM625.369 141.189L625.395 143.009C625.395 143.339 625.265 143.616 625.005 143.841C624.745 144.049 624.468 144.153 624.173 144.153C623.74 144.153 623.515 143.937 623.497 143.503C623.272 137.974 623.159 134.915 623.159 134.325C623.159 133.736 623.185 133.017 623.237 132.167C623.272 131.855 623.471 131.699 623.835 131.699C624.754 131.699 625.274 132.072 625.395 132.817C625.447 133.199 625.473 133.502 625.473 133.727L625.369 135.365V141.189Z" fill="#444444"/>
<path d="M630.586 131.855L631.886 131.881C632.18 131.881 632.345 131.873 632.38 131.855V126.525C632.397 126.231 632.544 125.979 632.822 125.771C633.099 125.563 633.359 125.459 633.602 125.459C633.844 125.459 634.035 125.537 634.174 125.693C634.33 125.849 634.399 126.092 634.382 126.421C634.364 126.751 634.356 128.553 634.356 131.829L637.398 131.725C637.918 131.725 638.178 132.029 638.178 132.635C638.178 133.086 638.039 133.424 637.762 133.649C637.502 133.875 637.216 133.996 636.904 134.013C636.609 134.031 636.314 134.039 636.02 134.039L634.434 134.013C634.434 134.724 634.503 136.128 634.642 138.225C634.798 140.323 634.919 141.683 635.006 142.307C635.092 142.914 635.11 143.313 635.058 143.503C635.006 143.677 634.91 143.798 634.772 143.867C634.546 143.971 634.243 144.023 633.862 144.023C633.48 144.023 633.255 143.815 633.186 143.399C632.839 141.129 632.605 138.009 632.484 134.039C632.328 134.057 631.73 134.065 630.69 134.065C629.65 134.065 629.13 133.762 629.13 133.155C629.13 132.289 629.615 131.855 630.586 131.855Z" fill="#444444"/>
<path d="M643.215 135.573L643.423 141.709C643.423 142.472 643.389 142.914 643.319 143.035C643.285 143.347 643.181 143.59 643.007 143.763C642.851 143.937 642.539 144.023 642.071 144.023C641.846 144.023 641.664 143.885 641.525 143.607C641.387 143.313 641.309 142.983 641.291 142.619C641.17 139.569 641.005 136.709 640.797 134.039C640.607 131.353 640.511 128.857 640.511 126.551C640.511 126.187 640.633 125.901 640.875 125.693C641.118 125.485 641.404 125.381 641.733 125.381C642.218 125.381 642.505 125.797 642.591 126.629C642.695 127.461 642.756 128.501 642.773 129.749C642.808 130.997 642.843 131.907 642.877 132.479C643.744 132.029 644.611 131.803 645.477 131.803C647.488 131.803 648.762 132.687 649.299 134.455C649.611 135.461 649.767 136.752 649.767 138.329C649.767 138.849 649.715 139.673 649.611 140.799C649.525 141.909 649.473 142.628 649.455 142.957C649.438 143.287 649.291 143.547 649.013 143.737C648.753 143.911 648.467 143.997 648.155 143.997C647.67 143.997 647.427 143.737 647.427 143.217L647.609 138.693C647.609 138.312 647.592 137.679 647.557 136.795C647.523 135.911 647.341 135.209 647.011 134.689C646.699 134.169 646.145 133.909 645.347 133.909C643.926 133.909 643.215 134.464 643.215 135.573Z" fill="#444444"/>
<path d="M665.065 131.881C666.313 131.881 667.336 132.479 668.133 133.675C668.948 134.871 669.355 136.31 669.355 137.991C669.355 139.655 668.939 141.077 668.107 142.255C667.293 143.434 666.201 144.023 664.831 144.023C663.479 144.023 662.387 143.425 661.555 142.229C660.723 141.016 660.307 139.673 660.307 138.199C660.307 136.31 660.689 134.802 661.451 133.675C662.266 132.479 663.471 131.881 665.065 131.881ZM664.753 134.013C664.025 134.013 663.427 134.395 662.959 135.157C662.491 135.92 662.257 136.726 662.257 137.575C662.257 138.893 662.517 139.898 663.037 140.591C663.557 141.285 664.147 141.631 664.805 141.631C665.984 141.631 666.738 141.12 667.067 140.097C667.206 139.612 667.275 139.005 667.275 138.277C667.275 135.435 666.435 134.013 664.753 134.013Z" fill="#444444"/>
<path d="M672.458 132.869C672.527 132.575 672.674 132.332 672.9 132.141C673.125 131.933 673.35 131.829 673.576 131.829C673.818 131.829 674 131.873 674.122 131.959C674.26 132.046 674.338 132.124 674.356 132.193C674.39 132.263 674.425 132.384 674.46 132.557C674.356 133.909 674.304 135.131 674.304 136.223C674.304 137.298 674.434 138.537 674.694 139.941C674.954 141.328 675.24 142.021 675.552 142.021C676.02 142.021 676.609 141.761 677.32 141.241C678.048 140.721 678.568 140.175 678.88 139.603C678.672 137.107 678.568 134.967 678.568 133.181C678.568 132.817 678.68 132.505 678.906 132.245C679.148 131.985 679.434 131.855 679.764 131.855C680.301 131.855 680.57 132.219 680.57 132.947C680.57 134.178 680.656 136.007 680.83 138.433C681.02 140.86 681.211 142.403 681.402 143.061C681.436 143.2 681.454 143.365 681.454 143.555C681.454 143.729 681.332 143.893 681.09 144.049C680.864 144.223 680.561 144.309 680.18 144.309C679.816 144.309 679.573 144.101 679.452 143.685C679.417 143.339 679.33 142.819 679.192 142.125C677.978 143.391 676.756 144.023 675.526 144.023C674.954 144.023 674.442 143.807 673.992 143.373C673.541 142.94 673.186 142.351 672.926 141.605C672.475 140.167 672.25 138.815 672.25 137.549C672.25 136.284 672.319 134.724 672.458 132.869Z" fill="#444444"/>
<path d="M687.834 140.201L687.86 142.879C687.86 143.191 687.713 143.477 687.418 143.737C687.141 143.997 686.863 144.127 686.586 144.127C686.187 144.127 685.936 143.815 685.832 143.191C685.815 143.053 685.745 141.787 685.624 139.395C685.503 136.986 685.268 135.097 684.922 133.727C684.766 133.069 684.688 132.679 684.688 132.557C684.688 131.985 685.035 131.699 685.728 131.699C686.023 131.699 686.256 131.812 686.43 132.037C686.603 132.263 686.707 132.497 686.742 132.739C686.794 132.965 686.837 133.277 686.872 133.675C686.906 134.074 686.932 134.325 686.95 134.429C687.314 133.563 687.86 132.913 688.588 132.479C689.316 132.046 690.113 131.829 690.98 131.829C692.401 131.829 693.112 132.193 693.112 132.921C693.112 133.285 692.982 133.58 692.722 133.805C692.479 134.013 692.193 134.117 691.864 134.117C690.39 134.117 689.351 134.585 688.744 135.521C688.137 136.457 687.834 138.017 687.834 140.201Z" fill="#444444"/>
<path d="M710.85 131.855C711.613 131.855 711.994 132.505 711.994 133.805C711.994 133.944 711.994 134.091 711.994 134.247L711.942 136.067C711.925 136.639 711.916 137.203 711.916 137.757L712.306 143.633C712.306 144.067 711.864 144.283 710.98 144.283C710.928 144.283 710.798 144.283 710.59 144.283C710.399 144.283 710.261 144.205 710.174 144.049C710.105 143.893 710.096 143.703 710.148 143.477C710.217 143.252 710.2 143.001 710.096 142.723C709.299 143.573 708.241 143.997 706.924 143.997C704.48 143.997 703.258 142.108 703.258 138.329C703.258 136.232 703.648 134.646 704.428 133.571C705.225 132.497 706.361 131.959 707.834 131.959C708.527 131.959 709.221 132.081 709.914 132.323C710.139 132.011 710.451 131.855 710.85 131.855ZM708.146 134.221C707.158 134.221 706.421 134.507 705.936 135.079C705.451 135.651 705.208 136.7 705.208 138.225C705.208 140.791 705.901 142.073 707.288 142.073C707.652 142.073 708.051 141.909 708.484 141.579C708.935 141.25 709.247 140.877 709.42 140.461C709.749 139.525 709.914 138.503 709.914 137.393C709.914 136.284 709.775 135.478 709.498 134.975C709.238 134.473 708.787 134.221 708.146 134.221Z" fill="#444444"/>
<path d="M721.552 131.829L721.526 126.811C721.526 125.875 721.82 125.407 722.41 125.407C723.016 125.407 723.354 125.667 723.424 126.187C723.458 126.413 723.502 127.773 723.554 130.269C723.606 132.765 723.684 135.105 723.788 137.289C723.909 139.473 723.97 141.51 723.97 143.399C723.97 143.919 723.58 144.179 722.8 144.179C722.28 144.179 722.02 143.815 722.02 143.087C721.274 143.677 720.39 143.971 719.368 143.971C718.068 143.971 717.01 143.486 716.196 142.515C715.398 141.545 715 140.349 715 138.927C715 137.506 715.286 136.18 715.858 134.949C716.447 133.701 717.357 132.809 718.588 132.271C719.35 131.942 720.087 131.777 720.798 131.777C721.058 131.777 721.309 131.795 721.552 131.829ZM721.682 135.391C721.56 135.01 721.413 134.724 721.24 134.533C721.066 134.325 720.876 134.204 720.668 134.169C720.477 134.117 720.243 134.091 719.966 134.091C719.688 134.091 719.35 134.195 718.952 134.403C718.553 134.611 718.215 134.949 717.938 135.417C717.383 136.353 717.106 137.341 717.106 138.381C717.106 139.404 717.305 140.245 717.704 140.903C718.12 141.545 718.7 141.865 719.446 141.865C720.208 141.865 720.806 141.493 721.24 140.747C721.673 140.002 721.89 139.049 721.89 137.887C721.89 136.587 721.82 135.755 721.682 135.391Z" fill="#444444"/>
<path d="M727.47 135.157C727.47 134.135 727.834 133.32 728.562 132.713C729.29 132.107 730.131 131.803 731.084 131.803C732.055 131.803 732.982 131.977 733.866 132.323C734.75 132.67 735.192 133.129 735.192 133.701C735.192 133.996 735.08 134.23 734.854 134.403C734.629 134.577 734.43 134.663 734.256 134.663C734.1 134.663 733.97 134.663 733.866 134.663C733.78 134.646 733.433 134.481 732.826 134.169C732.237 133.857 731.691 133.701 731.188 133.701C730.686 133.701 730.252 133.831 729.888 134.091C729.542 134.334 729.368 134.698 729.368 135.183C729.368 135.669 729.568 136.05 729.966 136.327C730.382 136.605 731.102 136.847 732.124 137.055C733.147 137.246 733.927 137.523 734.464 137.887C735.019 138.251 735.296 138.927 735.296 139.915C735.296 141.354 734.915 142.377 734.152 142.983C733.407 143.573 732.497 143.867 731.422 143.867C730.348 143.867 729.429 143.72 728.666 143.425C727.921 143.131 727.548 142.689 727.548 142.099C727.548 141.423 727.886 141.085 728.562 141.085C728.736 141.085 729.117 141.207 729.706 141.449C730.296 141.692 730.876 141.813 731.448 141.813C732.038 141.813 732.48 141.631 732.774 141.267C733.086 140.886 733.242 140.453 733.242 139.967C733.242 139.482 733.043 139.135 732.644 138.927C732.246 138.702 731.639 138.52 730.824 138.381C730.01 138.243 729.412 138.095 729.03 137.939C727.99 137.523 727.47 136.596 727.47 135.157Z" fill="#444444"/>
<path d="M540.817 24.9039C536.516 21.0772 532.373 17.4224 528.246 13.7547C527.42 13.0271 526.838 12.5127 525.953 11.4299C525.287 10.6327 523.912 8.91164 524.918 8.37896C525.795 8.02569 526.463 7.88666 528.022 9.0125C532.034 11.9402 535.578 15.4409 539.113 18.8951C542.232 21.9475 544.564 24.3226 547.164 27.1861C548.379 28.5235 548.112 29.6365 546.673 30.475C545.381 31.227 544.068 32.0216 542.659 32.5166C537.588 34.329 532.49 36.0019 527.383 37.7341C526.751 37.9533 526.27 38.1621 525.48 38.3153C524.52 38.4916 523.831 38.6732 523.478 37.7961C523.134 36.9655 524.168 36.225 524.762 35.9554C529.678 33.5941 539.902 28.8924 540.389 28.5182C537.288 27.4017 534.441 26.3034 531.528 25.3627C511.212 18.9078 490.608 13.9559 469.083 13.9585C452.045 13.9602 435.3 15.9793 418.882 20.5788C417.911 20.8441 416.905 21.0294 415.932 21.1889C414.617 21.4244 413.892 21.3142 413.723 20.6425C413.577 19.3394 414.428 18.9525 415.08 18.5849C416.372 17.8329 417.841 17.3457 419.263 16.8675C438.353 10.6697 457.991 9.04517 477.926 9.99714C498.386 10.9727 517.784 16.4765 536.783 23.6498C537.77 24.0663 540.309 24.8674 540.817 24.9039Z" fill="#444444"/>
<path d="M409.753 160.448C409.753 153.929 409.97 147.4 409.705 140.891C409.193 128.254 408.417 115.631 407.737 103.003C407.495 98.4144 407.061 93.8304 406.984 89.2464C406.859 81.9941 408.084 74.8624 409.29 67.7355C409.594 65.9357 409.628 64.0828 409.719 62.2492C409.888 59.0163 411.181 57.8631 414.384 57.699C417.867 57.5205 421.335 56.9994 424.818 56.8064C429.748 56.5362 434.688 56.4107 439.622 56.2611C441.586 56.2032 443.559 56.3383 445.517 56.2129C451.369 55.8461 457.215 55.3829 463.062 54.9824C469.608 54.5337 476.154 53.8581 482.705 53.7568C490.182 53.641 497.673 53.9498 505.15 54.2683C510.042 54.4758 514.914 55.0886 519.8 55.4167C529.573 56.0681 539.308 55.6628 549.009 54.2924C551.686 53.916 554.402 53.834 557.099 53.5879C557.451 53.5542 557.861 53.419 558.116 53.1874C560.398 51.1222 563.046 51.6434 563.948 54.6061C564.952 57.9017 566.013 61.2745 566.303 64.6763C567.118 74.2641 567.716 83.876 568.097 93.4927C568.637 107.225 568.821 120.968 569.332 134.7C569.626 142.527 570.335 150.334 570.721 158.16C570.924 162.31 570.876 166.474 570.871 170.634C570.871 172.95 569.925 174.243 567.798 175.01C565.087 175.985 562.419 177.249 559.621 177.775C556.25 178.402 552.757 178.6 549.318 178.591C545.299 178.576 541.281 178.122 537.263 177.886C536.129 177.818 534.981 177.746 533.852 177.843C526.177 178.484 518.508 179.174 510.833 179.831C506.911 180.168 502.893 180.053 499.077 180.887C490.992 182.663 482.719 182.6 474.596 183.898C472.078 184.299 469.415 184.313 466.877 184C457.895 182.89 449.169 184.294 440.452 186.181C434.553 187.459 428.648 188.748 422.7 189.746C420.052 190.19 417.288 190.046 414.582 189.964C412.064 189.886 410.621 188.391 410.221 185.881C409.328 180.318 409.406 174.721 409.55 169.119C409.628 166.233 409.565 163.343 409.565 160.457H409.748L409.753 160.448ZM560.306 77.2461L559.776 77.0868C558.305 80.1123 556.655 83.0701 555.42 86.1921C554.585 88.3007 554.132 90.5203 552.448 92.2284C551.633 93.0584 550.799 94.0524 550.456 95.1284C549.298 98.7811 546.5 101.396 544.687 104.629C543.645 106.487 541.402 106.448 540.046 104.779C537.653 101.821 535.266 98.8583 532.936 95.8522C531.653 94.202 530.485 92.4649 529.212 90.694C528.898 91.0704 528.623 91.3985 528.353 91.7314C524.807 96.1224 521.31 100.557 517.692 104.89C515.695 107.283 513.288 106.854 512.101 103.963C510.958 101.17 510.186 98.2841 509.878 95.2297C509.429 90.7567 508.652 86.3127 507.987 81.859C507.895 81.2558 507.644 80.672 507.417 79.9289C507.118 80.2715 506.978 80.4356 506.843 80.5996C500.553 88.1559 495.232 96.3781 490.172 104.784C489.005 106.723 487.736 108.654 486.236 110.342C481.6 115.578 476.438 120.331 472.348 126.077C470.404 128.809 467.857 128.355 466.26 125.368C464.075 121.281 461.822 117.228 459.69 113.112C457.234 108.388 454.876 103.611 452.358 98.6267C450.288 100.373 447.804 102.072 445.812 104.224C438.523 112.079 431.012 119.737 424.393 128.196C421.287 132.162 418.166 136.109 415.937 140.659C415.604 141.34 415.397 142.146 415.373 142.903C415.132 151.608 414.895 160.313 414.751 169.022C414.669 174.007 414.77 178.996 414.76 183.98C414.76 185.052 415.18 185.467 416.256 185.36C418.561 185.138 420.911 185.187 423.168 184.738C428.055 183.758 432.903 182.567 437.751 181.404C446.164 179.387 454.625 177.818 463.342 178.673C468.291 179.155 473.192 178.986 478.117 178.156C483.935 177.177 489.81 176.545 495.657 175.739C497.389 175.502 499.106 175.131 500.842 174.933C509.231 173.978 517.63 173.095 526.018 172.115C531.812 171.44 537.591 170.928 543.428 171.493C546.081 171.748 548.763 171.806 551.426 171.744C553.64 171.69 555.888 171.502 558.049 171.044C559.911 170.653 561.662 169.741 563.495 169.181C564.291 168.94 564.513 168.564 564.489 167.792C564.407 164.993 564.469 162.185 564.296 159.391C563.794 151.444 563.022 143.506 562.68 135.554C562.004 119.901 561.57 104.243 560.991 88.5854C560.852 84.8024 560.538 81.0291 560.306 77.2509V77.2461ZM469.931 120.639C473.607 116.654 477.336 112.721 480.92 108.658C482.709 106.637 484.494 104.528 485.831 102.197C491.595 92.1416 498.527 82.9013 505.565 73.7381C507.35 71.4124 509.805 71.6777 510.982 74.3847C511.696 76.0253 512.275 77.7334 512.772 79.456C514.258 84.6094 514.972 89.893 515.304 95.2394C515.386 96.5519 515.628 97.8498 515.796 99.1575L516.206 99.2106C517.856 97.1261 519.516 95.0464 521.151 92.9522C522.902 90.7085 524.581 88.4117 526.375 86.2017C528.334 83.7891 530.823 83.818 532.805 86.2114C533.302 86.8145 533.688 87.5142 534.113 88.1752C536.52 91.9389 539.183 95.4951 542.516 98.9741C543.597 97.1405 544.59 95.4662 545.57 93.787C546.293 92.5469 546.862 91.1814 547.755 90.0764C549.26 88.2138 550.234 86.1824 550.557 83.818C550.606 83.4755 550.688 83.1184 550.847 82.8144C553.312 78.0808 555.7 73.3039 559.009 69.0673C559.342 68.6427 559.602 67.9623 559.525 67.4605C559.091 64.6522 558.478 61.8729 558.063 59.0646C557.846 57.6025 557.128 57.2648 555.84 57.5881C555.584 57.6508 555.319 57.6653 555.063 57.7183C551.681 58.4228 548.309 59.1949 544.913 59.8221C535.912 61.4772 526.838 61.9018 517.712 61.1684C513.872 60.8596 510.032 60.5266 506.187 60.4108C498.749 60.1889 491.306 60.102 483.867 59.9814C482.685 59.9621 481.503 60.02 480.326 60.0827C477.051 60.2612 473.776 60.4639 470.5 60.6569C468.884 60.7534 467.268 60.8306 465.652 60.9416C458.011 61.4675 450.375 62.0128 442.734 62.5291C441.952 62.5822 441.157 62.5146 440.37 62.4615C432.117 61.8922 423.974 62.9923 415.744 64.1311C415.638 65.1444 415.59 66.2349 415.407 67.3013C414.075 75.0265 412.614 82.7372 412.792 90.6216C412.898 95.389 413.202 100.151 413.429 104.919C413.877 114.497 414.336 124.07 414.794 133.648C414.813 134.063 414.89 134.478 414.963 135.086C416.41 132.953 417.592 130.903 419.073 129.093C424.886 121.986 430.144 114.41 436.82 108.026C438.523 106.395 440.071 104.591 441.605 102.796C444.374 99.5628 447.76 97.0826 451.282 94.7858C453.385 93.4154 455.054 93.8931 456.357 96.0452C456.607 96.4553 456.853 96.8751 457.037 97.3191C459.762 103.901 463.66 109.841 467.23 115.959C468.17 117.571 469.092 119.202 469.917 120.649L469.931 120.639Z" fill="#444444"/>
</g>
<defs>
<clipPath id="clip0_147_11847">
<rect width="756.706" height="218.021" fill="white" transform="translate(0.647095)"/>
</clipPath>
</defs>
</svg>
